<?xml version="1.0" encoding="utf-8"?>
<!-- Generator: Adobe Illustrator 26.0.1, SVG Export Plug-In . SVG Version: 6.00 Build 0)  -->
<svg version="1.1" id="Layer_1" xmlns="http://www.w3.org/2000/svg" xmlns:xlink="http://www.w3.org/1999/xlink" x="0px" y="0px"
	 viewBox="0 0 76.1 80" style="enable-background:new 0 0 76.1 80;" xml:space="preserve">
<style type="text/css">
	.st0{fill:#BCBCBC;}
	.st1{fill:#B42D30;}
	.st2{fill:#E13237;}
	.st3{fill:#E2272D;}
	.st4{fill:#E2292F;}
	.st5{fill:#BDBFBF;}
	.st6{fill:#BCC3C3;}
	.st7{fill:#BCC1C1;}
	.st8{fill:#E2282E;}
	.st9{fill:#BBC6C6;}
	.st10{fill:#BCC5C5;}
	.st11{fill:#BCC6C5;}
	.st12{fill:#E1272C;}
	.st13{fill:#BBC3C3;}
	.st14{fill:#E12E34;}
	.st15{fill:#E12227;}
	.st16{fill:#BCC2C2;}
	.st17{fill:#BAC4C4;}
	.st18{fill:#E12328;}
	.st19{fill:#E22026;}
	.st20{fill:#B4292B;}
	.st21{fill:#E22A30;}
	.st22{fill:#E1252A;}
	.st23{fill:#E22329;}
	.st24{fill:#E11F25;}
	.st25{fill:#B0181B;}
	.st26{fill:#DB2628;}
	.st27{fill:#AF1215;}
	.st28{fill:#C0C2C2;}
	.st29{fill:#E13135;}
	.st30{fill:#B11B1E;}
	.st31{fill:#C0C4C4;}
	.st32{fill:#BACBCB;}
	.st33{fill:#E12429;}
	.st34{fill:#BAD2D2;}
	.st35{fill:#E02126;}
	.st36{fill:#BEC8C8;}
	.st37{fill:#B8D9D9;}
	.st38{fill:#AF1517;}
	.st39{fill:#B11D1F;}
	.st40{fill:#BACFCF;}
	.st41{fill:#B9D5D5;}
	.st42{fill:#DF1D21;}
	.st43{fill:#BBCDCD;}
	.st44{fill:#C1C0C0;}
	.st45{fill:#B11215;}
	.st46{fill:#BBD0D0;}
	.st47{fill:#C1BEBE;}
	.st48{fill:#B9D3D3;}
	.st49{fill:#DF1418;}
	.st50{fill:#B11518;}
	.st51{fill:#B8DBDB;}
	.st52{fill:#C27373;}
	.st53{fill:#B01114;}
	.st54{fill:#B2181B;}
	.st55{fill:#BDCCCC;}
	.st56{fill:#B9D2D2;}
	.st57{fill:#C9A6A7;}
	.st58{fill:#AD0D10;}
	.st59{fill:#BCCACA;}
	.st60{fill:#C27172;}
	.st61{fill:#B9D0D0;}
	.st62{fill:#B9D7D7;}
	.st63{fill:#DF0D11;}
	.st64{fill:#B9D6D6;}
	.st65{fill:#B22225;}
	.st66{fill:#B11D20;}
	.st67{fill:#B9D1D1;}
	.st68{fill:#BFB1B1;}
	.st69{fill:#C06465;}
	.st70{fill:#C05E5F;}
	.st71{fill:#C16B6B;}
	.st72{fill:#DE080B;}
	.st73{fill:#DF0F13;}
	.st74{fill:#FEFEFE;}
	.st75{fill:#B11A1D;}
	.st76{fill:#AF1316;}
	.st77{fill:#B42326;}
	.st78{fill:#B32527;}
	.st79{fill:#B0171A;}
	.st80{fill:#B22123;}
	.st81{fill:#B22325;}
	.st82{fill:#B21F22;}
	.st83{fill:#AE1013;}
	.st84{fill:#B22023;}
	.st85{fill:#B1191C;}
	.st86{fill:#B01B1D;}
	.st87{fill:#B22224;}
	.st88{fill:#B52123;}
	.st89{fill:#B32628;}
	.st90{fill:#B83D3E;}
	.st91{fill:#B21A1C;}
	.st92{fill:#AF1013;}
	.st93{fill:#D19D9D;}
	.st94{fill:#DE191C;}
	.st95{fill:#E01F24;}
	.st96{fill:#E21E24;}
	.st97{fill:#E23F43;}
	.st98{fill:#DF191D;}
	.st99{fill:#E0262B;}
	.st100{fill:#E22126;}
	.st101{fill:#E02226;}
	.st102{fill:#E02C31;}
	.st103{fill:#E02025;}
	.st104{fill:#DF2C31;}
	.st105{fill:#DF1B1F;}
	.st106{fill:#E0161B;}
	.st107{fill:#DF1B1E;}
	.st108{fill:#E02328;}
	.st109{fill:#DF1216;}
	.st110{fill:#DF171B;}
	.st111{fill:#DE2D30;}
	.st112{fill:#E02327;}
	.st113{fill:#DF3135;}
	.st114{fill:#DF1C1F;}
	.st115{fill:#BDC1C1;}
	.st116{fill:#E1161B;}
	.st117{fill:#E01015;}
	.st118{fill:#E01B1F;}
	.st119{fill:#AE0F12;}
	.st120{fill:#E1181E;}
	.st121{fill:#DF1317;}
	.st122{fill:#B42124;}
	.st123{fill:#E0181C;}
	.st124{fill:#DE2124;}
	.st125{fill:#AE1114;}
	.st126{fill:#B42022;}
	.st127{fill:#E01519;}
	.st128{fill:#DF0B0F;}
	.st129{fill:#DF1316;}
</style>
<g>
	<path class="st0" d="M0.6,12.8c1.8-0.6,3.5-1.2,5.3-1.8c2.1-0.7,4.3-1.6,6.4-2.3c3.7-1.4,7.4-2.6,11.1-4c2.3-0.8,4.5-1.6,6.8-2.4
		c1.7-0.6,3.4-1.2,4.9-1.8c0.4-0.1,0.9-0.2,1.3-0.4c0.7-0.4,1.4-0.2,2,0c2.6,0.8,5.3,1.7,7.9,2.6c2.5,0.9,5.1,1.8,7.7,2.6
		c2.1,0.7,4.2,1.5,6.4,2.1c2.5,0.8,4.9,1.8,7.5,2.5c2.1,0.6,4.2,1.5,6.3,2.1c0.5,0.1,0.9,0.3,1.5,0.4c0.3,0.1,0.5,0.2,0.4,0.7
		c-0.2,1.7-0.4,3.4-0.6,5c-0.2,2.3-0.6,4.7-0.8,7c-0.1,0.9-0.2,1.9-0.4,2.8c-0.2,1.9-0.4,3.7-0.6,5.6c-0.2,1.3-0.4,2.6-0.5,3.9
		c-0.2,1.3-0.3,2.5-0.4,3.8c-0.1,1.3-0.3,2.5-0.4,3.8s-0.2,2.5-0.4,3.7c-0.2,0.8-0.2,1.8-0.4,2.6c-0.2,0.7-0.2,1.7-0.3,2.5
		c-0.1,0.8-0.1,1.7-0.3,2.5c-0.2,1.5-0.4,3-0.6,4.5c-0.1,0.9-0.4,1.6-1.3,2c-3,1.6-6,3.3-9,4.9C57.9,69,56,70,54.1,71.1
		c-1.6,0.8-3.2,1.7-4.7,2.6c-2.1,1.2-4.1,2.3-6.2,3.5c-1.8,0.9-3.6,2-5.4,2.9c-0.5,0.3-0.9-0.2-1.4-0.4c-1.6-0.8-3.2-1.7-4.7-2.6
		c-2.5-1.4-4.9-2.8-7.5-4.2c-2.3-1.3-4.6-2.5-6.9-3.9c-1.4-0.7-2.8-1.5-4.2-2.3c-2.3-1.3-4.6-2.6-6.9-3.9c-0.7-0.4-0.6-1.2-0.7-1.8
		c-0.1-0.9-0.2-1.9-0.3-2.8c-0.1-1.1-0.2-2-0.3-3c-0.1-0.6-0.2-1.3-0.2-1.9c-0.2-0.6-0.3-1.6-0.4-2.4c-0.1-0.7-0.1-1.4-0.2-2.1
		c-0.1-0.5-0.2-0.9-0.1-1.5c0.1-0.5-0.1-1.1-0.2-1.6c-0.2-1.6-0.3-3-0.5-4.6c-0.2-1.4-0.3-2.6-0.5-4c-0.1-0.9-0.1-2-0.3-2.9
		c-0.1-0.7-0.1-1.6-0.2-2.4c-0.1-1.2-0.3-2.3-0.3-3.5c-0.1-0.9-0.2-1.8-0.3-2.7c-0.1-0.9-0.2-1.9-0.3-2.7C1.1,22.1,1,21.6,1,20.9
		c-0.2-1.8-0.4-3.5-0.6-5.3C0.2,14.9,0.2,14,0,13.2C-0.1,12.9,0.4,13,0.6,12.8z"/>
	<path class="st1" d="M71,22c0,0.6-0.1,1.3-0.1,1.9c-0.1,0.3,0.1,0.6-0.1,0.9v0.1V25c0,0.2,0,0.5,0,0.7c-0.1,0.3-0.1,0.6-0.1,0.8
		c0,0.1,0,0.1-0.1,0.2c-0.2,0.3,0,0.6-0.2,0.9v0.1l0,0c0,0-0.1,0-0.1,0.1c0,0.2,0.1,0.3,0.1,0.5c0,0.1,0,0.1-0.1,0.2
		c-0.1,0.6-0.2,1.2-0.3,1.8c-0.1-0.1-0.1-0.3-0.1-0.6c0,0.3,0,0.4,0.1,0.6c-0.2,2.1-0.4,4.2-0.7,6.2c-0.1,0.3,0,0.5-0.1,0.8
		C69,37.9,69,38.3,69,38.6c0.1,0.3,0.1,0.6-0.1,0.9c0,0.1,0,0.1-0.1,0.2c-0.1,0.2,0,0.4-0.1,0.6c0,0.4-0.1,0.8-0.1,1.2
		c0.1,0.2,0,0.4,0,0.6c-0.2,0.8-0.1,1.7-0.3,2.4c-0.3,0.5-0.3,1.1-0.4,1.6c0,0.2,0,0.4,0.1,0.7c0,0.1,0,0.1,0,0.2s0,0.1,0,0.2
		s0,0.1,0,0.2c0,0.2,0,0.4-0.1,0.6c0,0.1,0,0.2,0,0.2v0.1c0,0.2,0,0.4-0.1,0.6c0,0.4-0.1,0.8-0.1,1.2c0.1,0.2,0,0.5,0,0.7
		c-0.2,0.3,0,0.6-0.2,0.9c0,0-0.1,0-0.1,0.1c-0.2,0.2-0.1,0.4-0.1,0.6c0,0.1,0,0.2-0.1,0.3c-0.2,0.2,0,0.5,0,0.7c0,0.1,0,0.2,0,0.2
		L67,54c-0.1,0.5-0.2,1.2-0.1,1.7c-0.1,0.4-0.1,0.8-0.1,1.3c-0.1,0.2-0.1,0.5-0.1,0.8c0,0.1-0.1,0.1-0.1,0.2c0,0-0.1,0-0.1,0.1
		c-0.2,0.7-0.1,1.4-0.3,2.1c-1.7,0.9-3.4,1.9-5,2.8c-2,1.2-4,2.2-6,3.4c-0.2,0-0.4,0.1-0.5,0.3c-0.8,0.4-1.7,0.9-2.5,1.4
		c-0.3,0.1-0.5,0.2-0.7,0.4c-0.1,0.1-0.3,0.1-0.4,0.2c-0.3,0-0.5,0.1-0.6,0.3c-0.3,0.2-0.5,0.4-0.8,0.5C49,69.8,48.5,70,48,70.4l0,0
		c-0.2,0.1-0.5,0.2-0.7,0.4c-2.2,1.3-4.4,2.5-6.6,3.8c-0.8,0.5-1.8,0.9-2.7,1.5c-0.2,0.1-0.4,0.3-0.7,0.1c0-0.1,0-0.2,0-0.4
		c0-0.3,0-0.6,0-0.8c0-8.3,0-16.7,0-25c0-0.4-0.1-0.8,0.2-1.3c0.3-0.3,0.6-0.2,1.1-0.2c2.9,0,5.9,0,8.8,0c0.2,0,0.3,0.1,0.4,0.3
		c0.1,0.5,0.1,1.2,0.6,1.5c0.4,0.5,0.6,1.2,0.8,1.8c0,0.7,0.5,1.4,0.6,2.1c0,0.1,0.1-0.1,0.2,0c0.4,0.5,0.6,1.1,0.8,1.7
		c-0.1,0.5,0.3,0.9,0.4,1.4h0.1c0.3,0.2,0.3,0.5,0.4,0.7c0,0.3,0,0.6,0.2,0.8c0.1,0,0.2,0.1,0.2,0.2c0.1,0.2,0.4,0.1,0.5,0.2
		c0.5,0,1.2,0,1.7,0.1c0.5,0.1,1.1,0.1,1.6,0c0.8-0.1,1.6,0,2.4-0.1c0.3-0.1,0.6,0,0.9-0.1c0.2-0.2,0-0.3,0-0.5
		c-0.4-0.9-0.8-1.8-1.3-2.7c-0.2-0.4-0.3-1.1-0.7-1.4c-0.4-0.6-0.8-1.3-0.9-2c0-0.5-0.4-0.9-0.6-1.5c-0.3-0.6-0.5-1.4-0.9-1.9
		c-0.4-0.3-0.5-0.8-0.6-1.4c0.1-0.7-0.5-1.2-0.6-1.8c0,0-0.1,0.1-0.1,0c-0.3-0.2-0.3-0.5-0.4-0.7c0-0.2,0-0.4-0.1-0.7
		c0-0.2-0.1,0.1-0.2,0c-0.4-0.5-0.6-1.1-0.8-1.7c-0.1-0.8-0.6-1.6-0.8-2.3c0-0.1-0.1,0.1-0.1,0c-0.4-0.3-0.5-0.8-0.6-1.3
		c0.1-0.5-0.4-0.8-0.3-1.4c-0.1,0-0.1,0.1-0.2,0.1c-0.4-0.5-0.7-1.2-0.8-1.9c-0.1-0.6-0.4-1.2-0.7-1.8c-0.4-0.9-0.9-1.9-1.4-2.9
		h-0.1c-0.4-0.5-0.7-1.2-0.9-1.9c0-0.5-0.2-1.1-0.6-1.4c-0.4-0.6-0.7-1.3-0.9-2C44,25,43.4,24.2,43,23.3c-0.4-1.2-0.9-2.3-1.6-3.4
		c-0.4-1.1-1.1-2.1-1.5-3.2c0-0.1-0.1,0.1-0.2,0c-0.5-0.5-0.7-1.4-1.1-2c-0.4-0.8-0.7-1.6-1.2-2.4c-0.1-2.5,0-5,0-7.7
		c0-0.2,0.1-0.4,0.2-0.6c0.4,0.1,0.9,0.2,1.4,0.4c0.1,0.1,0.3,0.2,0.5,0.2c1.7,0.6,3.6,1.1,5.3,1.8c0.3,0.3,0.6,0.3,0.9,0.3
		c1.5,0.5,2.9,0.9,4.3,1.5c0.1,0,0.1,0,0.2,0c0.9,0.2,1.9,0.5,2.8,0.9c0.1,0,0.1,0,0.2,0c0.3,0.1,0.6,0.1,0.8,0.3
		c0.1,0,0.2,0,0.2,0.1c0.1,0.1,0.2,0.1,0.4,0.2c0.3,0.2,0.6,0.3,1.1,0.2c0.3,0.1,0.5,0.1,0.8,0.3c0.2,0,0.4,0.1,0.6,0.2
		c0.3,0.4,0.8,0.5,1.3,0.4c0.2,0,0.3,0.1,0.4,0.2c0.6,0.3,1.3,0.5,1.9,0.6c0.1-0.1,0.2-0.1,0.3,0.1c0,0.3,0.2,0.2,0.3,0.2
		c0.1,0,0.2,0,0.3,0.1c0.3,0.2,0.8,0.1,1.2,0.4c0.2,0.1,0.5,0.2,0.7,0.3c0.3,0.1,0.6,0.1,0.8,0.4c0.1,0,0.2-0.1,0.2-0.1
		c0.3-0.1,0.5,0.1,0.8,0.2c0.2,0.1,0.5,0.1,0.6,0.3c0.1,0.4,0.4,0.1,0.5,0.2c0.4,0.1,0.7,0.4,1.2,0.4c0,0,0,0,0,0.1
		c0.2,0.2,0.5,0.2,0.8,0.3c0.1,0,0.2,0,0.3,0.1c0.2,0.1,0.4,0.3,0.6,0.2c0.7,0.1,1.4,0.5,2.1,0.7c0.1,0,0.4,0.2,0.3,0.5l-0.1,0.1
		c0,0.2,0,0.4,0,0.6c0,0.1,0,0.1-0.1,0.1c0,0.1-0.1,0.2-0.1,0.3c0.1,0-0.1,0-0.1,0c0.1-0.1,0-0.1,0-0.1c0,0.2-0.1,0.4,0.1,0.6
		c0,0.2,0,0.4-0.1,0.5c-0.1-0.1-0.1-0.2-0.1-0.3c0,0.2-0.1,0.5,0,0.8c0,0.3,0,0.5-0.1,0.8c-0.1-0.1-0.1-0.3-0.1-0.4
		c0,0.1,0,0.3,0.1,0.4c0,0.6-0.1,1.4-0.2,2c-0.1-0.1-0.1-0.3-0.1-0.3C71,21.6,70.9,21.8,71,22z"/>
	<path class="st2" d="M37.4,4c0,2.8,0,5.7,0,8.5c0.1,0.2,0.1,0.4,0,0.5c-0.6,1.5-1.4,3-2,4.5c0,0.1-0.1,0.2-0.2,0.2
		c-0.4-0.1-0.1,0.2-0.2,0.3c0,0.3-0.1,0.6-0.4,0.9c-0.4,0.3-0.6,0.7-0.5,1.3c-0.1,0.6-0.3,1.3-0.7,1.7c-0.6,0.7-0.7,1.6-1.2,2.4
		c0,0.1,0,0.1-0.1,0.2c-0.1,0.2-0.2,0.4-0.2,0.6c-0.2,0.4-0.2,1.1-0.6,1.5c-0.4,0.4-0.5,0.9-0.6,1.5c0,0.3-0.1,0.7-0.4,0.9
		c-0.3,0-0.2,0.4-0.4,0.6c0,0.1,0,0.1-0.1,0.2c-0.1,0.4-0.4,0.7-0.4,1.3c0,0.3-0.1,0.5-0.4,0.7c-0.3,0.1-0.1,0.4-0.2,0.5
		c-0.1,0.2-0.1,0.6-0.4,0.8c-0.4,0.4-0.6,0.9-0.7,1.5c-0.1,0.4-0.1,0.8-0.5,1.2c-0.3,0.1-0.2,0.4-0.3,0.7c0,0.3-0.1,0.6-0.4,0.8
		c-0.4,0.1-0.3,0.4-0.3,0.7c-0.2,0.7-0.5,1.4-0.9,2c-0.4,0.3-0.5,0.6-0.5,1.2c0,0.1,0,0.2-0.1,0.3C24,41.9,24,42.2,24,42.5
		c-0.1,0.4-0.2,0.8-0.6,1.2c-0.3,0.4-0.6,0.8-0.5,1.4c0,0.4-0.1,0.7-0.4,1.1c-0.5,0.4-0.7,1.1-0.8,1.7c0,0.6-0.2,1.2-0.6,1.6
		c-0.4,0.3-0.5,0.8-0.7,1.4c-0.2,0.5-0.6,0.9-0.5,1.5c-0.4,0.7-0.5,1.6-1.1,2.2c-0.1,0-0.2-0.1-0.2,0c-0.1,0.4-0.4,0.8-0.4,1.4
		c0,0.2-0.1,0.5-0.3,0.6c-0.4,0.1-0.2,0.4-0.3,0.7c0,0.2-0.1,0.4-0.3,0.5c-0.3,0.3-0.5,0.7-0.5,1.3l0.1,0.1c0.3,0.1,0.5,0,0.8,0.1
		c1.4,0,2.7,0.1,4.1,0c0.3-0.1,0.6,0,0.9-0.1c0.5-0.2,1.1,0.2,1.6-0.2l0.1-0.1c0.5-0.7,0.7-1.7,1.1-2.5c0.1-0.2,0.1-0.4,0.1-0.7
		c0-0.2,0.1-0.4,0.2-0.5c0.2-0.1,0.3-0.4,0.4-0.6c0.2-0.6,0.7-1.3,0.6-2c0.1-0.6,0.2-1.3,0.7-1.7c0.1,0.1,0.1,0,0.2-0.1
		c0.2-0.6,0.4-1.4,0.8-2c0.2-0.1,0.4-0.1,0.6-0.1c2.4,0,4.8,0,7.2,0c0.2,0,0.4,0,0.6,0.1l0.1,0.1c0,9.1,0,18.2,0,27.3
		c-0.5,0.1-0.7-0.4-1.2-0.4c-0.2-0.1-0.4-0.3-0.7-0.3c-0.2,0-0.3-0.1-0.4-0.2c-0.3-0.4-0.7-0.5-1.2-0.7c-2-1.1-3.9-2.2-5.9-3.3
		c-0.1,0-0.2-0.1-0.3-0.1c-0.3-0.1-0.6-0.3-0.9-0.5c-0.5-0.4-1.1-0.7-1.8-0.9c-0.4-0.2-0.9-0.5-1.4-0.7C22.8,68.3,22.5,68,22,68
		c-0.5-0.3-1.2-0.6-1.7-0.9c-0.4-0.3-0.8-0.6-1.4-0.7c-0.4-0.1-0.7-0.4-1.1-0.6c-0.3-0.4-0.8-0.4-1.2-0.7c-0.2-0.2-0.4-0.3-0.6-0.4
		c-0.3-0.1-0.5-0.4-0.9-0.4c-1.1-0.4-2-1.1-2.9-1.6c-0.1-0.3-0.4-0.4-0.7-0.5c-0.8-0.4-1.6-0.8-2.3-1.3c-0.2-0.1-0.4-0.2-0.5-0.5
		c-0.1-0.1-0.1-0.3,0-0.4c0.1-0.3-0.2,0.1-0.1-0.1c-0.1-0.2-0.1-0.3-0.1-0.5c0-0.3,0-0.5,0-0.8c0-0.5,0-1.1-0.2-1.5
		c0-0.2,0.1-0.3,0-0.5c-0.1-1.1-0.3-2-0.4-3c-0.1-0.8-0.1-1.7-0.4-2.5c-0.1-0.2-0.1-0.3-0.1-0.5c0-0.1-0.1-0.2-0.1-0.3
		c0-0.3,0.1-0.6-0.1-0.8c0.4-0.4,0.4-0.6,0.5-0.8c0-0.1,0-0.3,0-0.4c0.1-0.7-0.1-1.4-0.1-2.1c0-1.5-0.3-2.9-0.5-4.4
		c-0.2-1.7-0.4-3.4-0.5-5c-0.2-2.2-0.5-4.4-0.7-6.6c-0.1-1.4-0.3-2.6-0.4-4C5.2,24.6,5,23.6,5,22.5c0-0.2,0-0.4-0.2-0.5
		c-0.4-0.3-0.3-0.8-0.3-1.4c-0.1-0.8-0.1-1.8-0.2-2.7c0.1-0.2,0.1-0.4,0-0.5c0,0,0,0.1-0.1,0.2C4,17.4,4,17.2,4,16.9
		c0.1-0.3,0-0.5,0-0.8c0.4-0.1,0.7-0.3,1.1-0.4c0.7,0,1.4-0.4,2.1-0.6c0.4-0.1,0.7-0.2,1.2-0.4c0.3-0.4,0.9-0.2,1.3-0.5
		c0.8-0.1,1.6-0.5,2.4-0.7c0.1-0.2,0.3-0.2,0.6-0.3c0.1-0.1,0.4,0,0.5-0.2c0.1,0,0.2-0.1,0.2-0.1c0.9-0.2,1.9-0.6,2.8-0.9
		c0.1,0,0.1-0.1,0.2-0.1c0.2-0.1,0.5-0.1,0.7-0.2c0.2,0,0.3-0.1,0.3-0.2c0.1-0.1,0.3-0.2,0.5-0.2c0.8,0,1.6-0.5,2.4-0.6
		c0.2,0,0.3-0.2,0.5-0.2c0.2-0.2,0.5-0.2,0.8-0.3c2.2-0.7,4.4-1.6,6.5-2.3c0.5-0.2,1.2-0.2,1.6-0.6c0.4-0.2,0.9-0.3,1.4-0.5
		c0.9-0.1,1.7-0.5,2.5-0.8C34.2,5.3,34.6,5.2,35,5c0.7-0.1,1.4-0.3,2-0.7C37.1,4,37.3,4,37.4,4z"/>
	<path class="st3" d="M4.7,22.1c0.3-0.1,0.3,0.2,0.3,0.3c0.1,1.3,0.3,2.5,0.4,3.8c0.2,1.9,0.4,3.8,0.6,5.6c0.2,1.7,0.4,3.4,0.5,5
		c0.2,1.9,0.4,3.8,0.6,5.6c0.2,1.6,0.4,3.3,0.5,4.8c0,0.2,0.1,0.5-0.1,0.7c-0.1-0.1-0.2-0.2-0.2-0.4c0.1-0.9-0.4-1.8-0.2-2.7
		c0-0.2,0-0.4-0.1-0.5c-0.1-0.2-0.1-0.3,0-0.5c0-0.2,0-0.4-0.1-0.5c-0.1-0.1,0-0.3-0.1-0.5c-0.2-0.3-0.1-0.7,0-1.1
		c0-0.3,0-0.5-0.1-0.8c-0.1-0.1-0.1-0.2-0.1-0.2c0-0.1,0-0.1,0-0.2c0-0.2,0-0.5-0.1-0.7c0-0.1,0-0.2,0-0.2c0-0.3,0-0.6-0.1-0.9
		c-0.1,0-0.1-0.1-0.1-0.2c0-0.3,0-0.6-0.1-0.9c-0.2-2-0.4-4.1-0.6-6.1c-0.1-0.3,0-0.6-0.1-0.8c0-0.1,0-0.2,0-0.3
		c0-0.3,0-0.6-0.1-0.9c-0.1,0-0.1-0.1-0.1-0.2s0-0.1,0-0.2c0-0.3,0-0.6-0.1-0.9c-0.1-1.5-0.3-3-0.5-4.5C4.5,22.8,4.5,22.4,4.7,22.1z
		"/>
	<path class="st4" d="M29.9,6.8C30.4,6.9,30,7,29.9,7c-0.8,0.3-1.6,0.5-2.4,0.8c-1.9,0.6-3.8,1.4-5.7,2c-0.1-0.1-0.1-0.2,0-0.2
		s0.2-0.1,0.3-0.1c0.1-0.1,0.3-0.2,0.5-0.2c0.2-0.1,0.4-0.1,0.5-0.2c0.1-0.1,0.3-0.3,0.5-0.2c1.8-0.6,3.6-1.3,5.4-1.8
		C29.2,7,29.5,6.9,29.9,6.8z"/>
	<path class="st5" d="M5.4,28.8v0.1c0,0.1-0.1,0.1-0.1,0C5,28.1,5,27.1,4.8,26.3c-0.2-1.4-0.3-2.7-0.5-4.1c0-0.5-0.2-1.1,0.1-1.5
		c0.1,0.4,0.2,0.9,0.2,1.4C4.7,23.8,5,25.5,5.2,27c0,0.3,0,0.5,0,0.8C5.4,28.2,5.2,28.5,5.4,28.8z"/>
	<path class="st3" d="M27.8,70.8c0.2-0.2,0.4,0,0.6,0.1c2.2,1.2,4.4,2.4,6.6,3.7c0.1,0.1,0.3,0.1,0.1,0.3
		C32.6,73.6,30.2,72.1,27.8,70.8z"/>
	<path class="st6" d="M5.7,31.1c0.2,2.1,0.6,4.2,0.6,6.3c0.1,0.3,0,0.6,0.1,0.9v0.1c-0.2,0.1-0.3-0.1-0.3-0.2c0-1.5-0.4-2.8-0.4-4.3
		c0-0.9-0.3-1.9-0.2-2.8C5.6,31.1,5.6,31.1,5.7,31.1C5.6,31.1,5.7,31.1,5.7,31.1z"/>
	<path class="st4" d="M8,50.5c0.5,0.3,0.2,0.8,0.3,1.3c0.2,1.5,0.3,2.9,0.4,4.5c0,0.1-0.1,0.1-0.1,0c-0.2-0.4,0-0.8-0.2-1.3
		c-0.2-0.2,0-0.4-0.1-0.6l0,0c-0.1-0.3-0.1-0.7,0-1.1c0-0.2,0-0.4-0.1-0.5c-0.1-0.2-0.1-0.4-0.2-0.6c0-0.4,0-0.8-0.1-1.3
		C7.8,50.7,7.8,50.6,8,50.5z"/>
	<path class="st7" d="M7.9,50.8c0.1,0.4,0,0.8,0,1.4c0,0.1,0,0.1,0,0.2c-0.3-0.8-0.2-1.7-0.3-2.4c-0.2-1.4-0.3-2.7-0.4-4.1
		c0-0.2-0.1-0.5,0.1-0.7c0,0.9,0.3,1.8,0.3,2.7c0.1,0.2,0,0.4,0.1,0.7c0,0.1,0,0.3,0,0.4c0.1,0.3,0,0.6,0.1,0.9c0,0.1,0,0.2,0,0.2
		C8,50.3,7.8,50.6,7.9,50.8z"/>
	<path class="st8" d="M9.2,60c0.9,0.7,2,1.3,3,1.8c0.2,0.1,0.4,0.1,0.5,0.3c0.1,0.1,0,0.1-0.1,0.2c-0.5-0.3-1.1-0.5-1.6-0.8
		c-0.7-0.2-1.3-0.6-1.9-0.9c-0.1-0.1-0.2-0.2-0.2-0.3C8.9,60.1,9,60.1,9.2,60z"/>
	<path class="st9" d="M68.2,44.8c0.2-0.8,0.1-1.7,0.4-2.5c0-0.1,0.1-0.1,0.1,0c-0.2,1.7-0.4,3.3-0.5,4.9c0,0.1-0.1,0.1-0.1,0.2
		c0,0.1-0.1,0.1-0.1,0v-0.1c0-0.3,0-0.6-0.1-1.1C68.2,45.7,67.9,45.2,68.2,44.8z"/>
	<path class="st10" d="M66.7,57.1c0-0.4,0.1-0.8,0.1-1.4c-0.1-0.6,0.1-1.2,0.2-1.7h0.1c0.1-0.1,0.1-0.1,0.2,0
		c-0.1,1.3-0.3,2.4-0.4,3.7c0,0.2-0.1,0.3-0.1,0.5c0,0.1-0.1,0.1-0.1,0c0-0.1,0-0.1,0-0.2v-0.1C66.8,57.6,66.6,57.4,66.7,57.1z"/>
	<path class="st11" d="M9,60.2c0.1,0.5,0.6,0.5,0.9,0.8c0.3,0.2,0.7,0.4,1.1,0.5c-1.1,0-2.2-1.1-2.3-2.1c0-0.4-0.1-0.7-0.1-1.2
		c0.1,0,0.1,0,0.2,0C8.9,58.6,9,58.8,8.9,59c0,0.2,0,0.4,0.1,0.5C9.2,59.7,9,60,9,60.2z"/>
	<path class="st12" d="M8.3,14.5c-0.9,0.5-2,0.8-3,1.2c-0.1,0-0.2,0-0.2-0.1c0.9-0.3,1.9-0.7,2.7-1.1C8,14.4,8.2,14.5,8.3,14.5z"/>
	<path class="st13" d="M67.8,14.2c-0.5,0.2-0.8-0.3-1.3-0.4c-0.2,0.1-0.3-0.1-0.5-0.2c-0.2-0.1-0.4-0.2-0.6-0.3
		c-0.1-0.1-0.1-0.2,0-0.2c0.8,0.3,1.7,0.5,2.4,0.8c0.1,0,0.3,0,0.2,0.2C67.9,14.2,67.8,14.2,67.8,14.2z"/>
	<path class="st14" d="M33.8,5.4c-0.8,0.4-1.6,0.9-2.5,0.8C32.1,5.9,32.9,5.5,33.8,5.4z"/>
	<path class="st15" d="M16.3,11.7c-0.8,0.5-1.8,0.6-2.6,0.9c-0.1,0-0.2,0-0.2-0.1C14.3,12.2,15.2,11.8,16.3,11.7z"/>
	<path class="st16" d="M52.9,9.2C51.9,8.9,51,8.7,50,8.2c0.1-0.2,0.3-0.1,0.5-0.1c0.7,0.2,1.5,0.5,2.1,0.7C52.8,9,52.9,9.1,52.9,9.2
		z"/>
	<path class="st17" d="M56.3,10.3c-0.3-0.1-0.5-0.1-0.8-0.2c-0.4,0-0.7-0.2-1.1-0.3c-0.2,0-0.3,0-0.3-0.2c0.8-0.1,1.5,0.3,2.2,0.6
		C56.3,10.2,56.4,10.2,56.3,10.3L56.3,10.3z"/>
	<path class="st18" d="M20.4,10.2c-0.6,0.2-1.3,0.5-1.9,0.7c-0.2,0.1-0.3,0.1-0.5-0.1c0-0.1,0.1-0.1,0.1-0.1l0,0
		c0.2-0.1,0.4-0.2,0.6-0.2c0.2-0.1,0.4-0.1,0.5-0.2c0.1-0.1,0.3-0.3,0.5-0.2c0.1,0,0.3-0.1,0.4-0.1C20.3,10.1,20.4,10.2,20.4,10.2z"
		/>
	<path class="st19" d="M12.1,13.2c-0.7,0.4-1.5,0.6-2.2,0.8c0,0-0.1-0.1-0.2-0.1C10.4,13.6,11.3,13.2,12.1,13.2z"/>
	<path class="st3" d="M37,4.2c0.1,0,0.2,0.1,0.2,0.1c-0.7,0.2-1.4,0.7-2.1,0.6C35.6,4.7,36.3,4.3,37,4.2z"/>
	<path class="st20" d="M66.2,60.2c-0.2-0.7,0.2-1.5,0.1-2.3c0.1,0,0.1,0.1,0.1,0.2c0,0.3,0,0.6,0,0.8c0.1,0.2,0.1,0.4,0,0.6
		C66.3,59.8,66.4,60.1,66.2,60.2z"/>
	<path class="st15" d="M25.1,69.3c0.7,0,1.3,0.3,1.8,0.9C26.2,70,25.7,69.7,25.1,69.3z"/>
	<path class="st21" d="M17.1,64.8c0.4,0.2,1.1,0.2,1.2,0.7c-0.5-0.2-0.9-0.4-1.4-0.7C17,64.8,17.1,64.7,17.1,64.8z"/>
	<path class="st22" d="M19.5,66.1c0.6,0,1.1,0.2,1.4,0.7C20.3,66.8,19.9,66.4,19.5,66.1z"/>
	<path class="st23" d="M36.3,75.4c0.5-0.1,0.7,0.4,1.2,0.5c0,0.1-0.1,0.1-0.1,0.2C36.9,75.9,36.6,75.7,36.3,75.4
		C36.2,75.5,36.2,75.4,36.3,75.4C36.2,75.4,36.2,75.4,36.3,75.4z"/>
	<path class="st24" d="M22.5,67.9c0.6-0.1,0.9,0.2,1.3,0.6C23.3,68.3,22.9,68.1,22.5,67.9z"/>
	<path class="st25" d="M48,70.3c0.4-0.5,0.9-0.6,1.5-0.8C49.1,69.8,48.6,70.1,48,70.3z"/>
	<path class="st26" d="M8.7,56.7c0.3,0.4,0,1.1,0.2,1.5c-0.1,0.1-0.2,0.1-0.3,0c-0.1-0.2-0.1-0.3,0-0.5c0-0.1,0-0.3-0.1-0.4
		c0,0,0-0.2,0-0.3C8.6,56.8,8.6,56.8,8.7,56.7z"/>
	<path class="st27" d="M58.3,11.1c-0.5,0.1-0.9-0.2-1.5-0.3c0,0,0,0,0-0.1H57c0.1-0.1,0.2-0.1,0.2,0c0.3,0.2,0.6,0.2,0.9,0.4
		C58.2,11,58.3,11,58.3,11.1z"/>
	<path class="st28" d="M6.6,39.4c0,0.1,0,0.1,0,0.2c0.1,0.3,0,0.5,0.1,0.8v0.1c0,0.1-0.1,0.1-0.1,0c-0.2-0.5-0.1-1.1-0.2-1.6
		C6.4,39.1,6.5,39.3,6.6,39.4z"/>
	<path class="st29" d="M15.6,63.9c0.4-0.2,0.6,0.2,0.9,0.4v0.1l0,0C16.2,64.3,15.9,64.2,15.6,63.9z"/>
	<path class="st30" d="M62.7,12.6c-0.4,0-0.8,0-1.2-0.4h0.1C62.1,12.2,62.4,12.3,62.7,12.6C62.7,12.5,62.7,12.6,62.7,12.6z"/>
	<path class="st31" d="M70.5,26.8v-0.1c0.1-0.2,0-0.5,0.1-0.7c0-0.1,0.1-0.1,0.1-0.1c0.1,0,0.1,0,0.2,0.1c-0.2,0.3,0,0.7-0.3,1.1
		c0,0-0.1,0.1-0.1,0C70.5,26.9,70.5,26.9,70.5,26.8z"/>
	<path class="st32" d="M62.7,12.5c-0.3-0.1-0.7-0.2-1.1-0.3C62.1,12,62.4,12.2,62.7,12.5z"/>
	<path class="st33" d="M36.3,75.4L36.3,75.4c-0.2,0-0.4-0.1-0.6-0.3C35.8,74.9,36.1,75.2,36.3,75.4z"/>
	<path class="st34" d="M57.3,10.7c-0.1,0-0.2,0-0.2,0c-0.2-0.1-0.4-0.2-0.6-0.3v-0.1C56.6,10.3,57.1,10.2,57.3,10.7z"/>
	<path class="st35" d="M21.8,9.6c0,0.1,0,0.2,0,0.2c-0.3,0.1-0.5,0.2-0.8,0.3c-0.1-0.1-0.1-0.1,0-0.2C21.2,9.8,21.4,9.7,21.8,9.6z"
		/>
	<path class="st36" d="M6.8,41.8c0.1,0.3-0.1,0.7,0.1,1.1c0,0.1-0.1,0.1-0.1,0C6.6,42.4,6.6,42.1,6.8,41.8z"/>
	<path class="st37" d="M67.5,52.1c0-0.3-0.1-0.6,0.1-0.9l0.1,0.1v0.1c0,0.3,0,0.6,0,0.9l0,0C67.5,52.2,67.5,52.1,67.5,52.1z"/>
	<path class="st33" d="M16.5,64.6v-0.1c0.3,0.1,0.5,0.1,0.6,0.4H17C16.8,64.8,16.6,64.7,16.5,64.6z"/>
	<path class="st38" d="M45.5,6.8c-0.4,0.1-0.7,0.1-0.9-0.3C44.9,6.6,45.2,6.7,45.5,6.8z"/>
	<path class="st39" d="M51.5,68.4c0.1-0.4,0.4-0.4,0.7-0.4C52,68.1,51.8,68.3,51.5,68.4z"/>
	<path class="st34" d="M68.9,39.8c0-0.3,0.1-0.7,0.1-1.1c0.2,0.3,0.1,0.7,0,1.1H68.9z"/>
	<path class="st37" d="M8.2,53.2c0,0.3,0,0.7,0,1.1C8,53.9,8,53.6,8.2,53.2z"/>
	<path class="st40" d="M8.2,54.3c0.2,0.2,0.1,0.4,0.1,0.6c0,0.1,0,0.2,0,0.2H8.2C8.2,54.9,8.2,54.6,8.2,54.3z"/>
	<path class="st41" d="M8.6,56.9c0,0.1,0,0.3,0,0.4c0,0,0,0,0,0.1H8.5c0-0.3-0.1-0.6,0.1-0.9C8.7,56.6,8.6,56.7,8.6,56.9z"/>
	<path class="st42" d="M4,16c0.2,0.2,0.2,0.5,0,0.8C4.1,16.5,3.9,16.2,4,16z"/>
	<path class="st43" d="M65.3,13.2c0,0.1,0,0.2,0,0.2c-0.3-0.1-0.5-0.2-0.8-0.3C64.7,12.9,65.1,13.3,65.3,13.2z"/>
	<path class="st44" d="M5.5,30.1c0,0.1,0,0.1,0,0.2c0.1,0.3,0.1,0.5,0,0.8l0,0C5.3,30.8,5.3,30.4,5.5,30.1z"/>
	<path class="st45" d="M64.3,13.3c-0.3-0.1-0.6-0.1-0.8-0.4C63.8,13,64.1,13,64.3,13.3z"/>
	<path class="st38" d="M68.5,14.6c-0.3,0.1-0.6,0-0.8-0.3C68,14.4,68.3,14.4,68.5,14.6z"/>
	<path class="st46" d="M53.9,9.5c-0.3-0.1-0.6-0.1-0.8-0.3C53.4,9.2,53.7,9.2,53.9,9.5z"/>
	<path class="st47" d="M71.9,16.2c0.2,0.3,0.1,0.6,0.1,0.8c0,0.2-0.1,0-0.1-0.1C71.8,16.7,71.7,16.5,71.9,16.2z"/>
	<path class="st48" d="M5.3,29h0.1v0.1c0,0.2,0,0.4,0,0.6H5.3C5.3,29.5,5.3,29.2,5.3,29z"/>
	<path class="st43" d="M18.1,10.8L18,10.9c-0.2,0-0.3,0.1-0.5,0.1C17.6,10.8,17.9,10.8,18.1,10.8z"/>
	<path class="st49" d="M17.1,11.3c-0.2,0.2-0.4,0.3-0.7,0.2C16.6,11.4,16.9,11.3,17.1,11.3z"/>
	<path class="st41" d="M70.4,27.9c0.2,0.2,0.1,0.5,0.1,0.7l0,0c0,0,0,0-0.1,0C70.2,28.4,70.2,28.2,70.4,27.9L70.4,27.9z"/>
	<path class="st50" d="M61.3,12.1c-0.2,0.2-0.4,0.1-0.5,0C60.6,12,60.9,12,60.9,12c0.1-0.1,0.2-0.1,0.2,0
		C61.2,12,61.3,12.1,61.3,12.1z"/>
	<path class="st51" d="M67.6,51.2v-0.1c0-0.2,0-0.5,0-0.7C67.8,50.6,67.8,50.9,67.6,51.2z"/>
	<path class="st37" d="M66.5,59.6c0-0.2,0-0.4,0-0.6c0.2,0.2,0.1,0.5,0.1,0.7C66.6,59.8,66.5,59.7,66.5,59.6z"/>
	<path class="st52" d="M70.5,26.8v0.1c0,0.3,0.1,0.5,0,0.8h-0.1C70.4,27.5,70.3,27.1,70.5,26.8z"/>
	<path class="st53" d="M50.4,69c0.1-0.3,0.3-0.4,0.6-0.3C50.9,68.8,50.7,68.9,50.4,69z"/>
	<path class="st54" d="M47.4,70.6c0.1-0.3,0.4-0.4,0.7-0.4C47.9,70.5,47.6,70.5,47.4,70.6z"/>
	<path class="st55" d="M7.9,52.3c0-0.1,0-0.1,0-0.2C8.1,52.2,8,52.4,8,52.6c0,0.1,0,0.2,0,0.3H7.9C7.9,52.8,7.9,52.6,7.9,52.3z"/>
	<path class="st56" d="M70.9,25.9h-0.1c-0.1-0.3-0.1-0.6,0-0.9l0,0C71,25.3,70.8,25.6,70.9,25.9z"/>
	<path class="st57" d="M70.8,24.8c0-0.3-0.1-0.6,0.1-0.9c0,0.1,0,0.1,0,0.2c0.1,0.2,0.1,0.5,0,0.7C70.9,24.8,70.8,24.8,70.8,24.8z"
		/>
	<path class="st37" d="M68,47.3h0.1c-0.1,0.2,0.2,0.5-0.1,0.8c-0.1-0.2-0.1-0.4,0-0.6C68,47.4,68,47.4,68,47.3z"/>
	<path class="st58" d="M71,22c-0.2-0.2-0.1-0.5,0-0.7c0,0.2,0,0.4,0.1,0.5C71,21.9,71,22,71,22z"/>
	<path class="st59" d="M7.2,43.9c0,0.2,0,0.3,0,0.5c0,0.1,0,0.2,0,0.2C7.1,44.4,6.9,44.2,7.2,43.9z"/>
	<path class="st59" d="M6.8,42.8h0.1c0,0.2,0,0.3,0,0.5c0,0.1,0,0.2,0,0.3H6.8C6.8,43.3,6.8,43,6.8,42.8z"/>
	<path class="st58" d="M71.5,19c-0.2-0.2-0.1-0.5-0.1-0.8c0,0.1,0,0.2,0.1,0.3C71.5,18.6,71.5,18.7,71.5,19z"/>
	<path class="st60" d="M71.9,16.2c0,0.2,0,0.5,0,0.7h-0.1c0-0.1,0-0.1,0-0.2c0-0.3-0.1-0.5,0-0.7h0.1C71.9,16.2,71.9,16.2,71.9,16.2
		z"/>
	<path class="st46" d="M61.2,12c-0.1,0-0.2,0-0.2,0c-0.1,0-0.2-0.1-0.3-0.1C60.9,11.6,61.1,11.7,61.2,12z"/>
	<path class="st56" d="M58.3,11.1c0,0-0.1,0-0.1-0.1c0.2-0.2,0.4-0.1,0.5,0.1C58.6,11.2,58.4,11.1,58.3,11.1z"/>
	<path class="st48" d="M18.8,10.7c-0.2,0.1-0.4,0.2-0.6,0.2C18.3,10.7,18.5,10.3,18.8,10.7z"/>
	<path class="st46" d="M19.9,10.2c-0.2,0.1-0.3,0.1-0.5,0.2C19.5,10.1,19.7,10,19.9,10.2z"/>
	<path class="st51" d="M67.9,48.5c0.2,0.2,0.1,0.4,0.1,0.6c0,0,0,0-0.1,0c0,0,0,0-0.1,0C67.8,48.9,67.8,48.7,67.9,48.5L67.9,48.5z"
		/>
	<path class="st49" d="M20.9,9.9c0,0.1,0,0.1,0,0.2c-0.2,0-0.3,0.1-0.5,0.1l-0.1-0.1C20.5,10,20.7,10,20.9,9.9z"/>
	<path class="st46" d="M22.5,9.3c-0.2,0.1-0.3,0.1-0.5,0.2C22.1,9.2,22.3,9.1,22.5,9.3z"/>
	<path class="st61" d="M23.7,8.9C23.4,9,23.3,9,23.1,9.1C23.2,8.8,23.3,8.7,23.7,8.9z"/>
	<path class="st45" d="M69.5,15c-0.3,0.2-0.5,0.1-0.6-0.2C69,14.7,69.3,14.9,69.5,15z"/>
	<path class="st62" d="M68.9,39.8H69c-0.1,0.2,0.1,0.5-0.1,0.6C68.8,40.2,68.8,40,68.9,39.8L68.9,39.8z"/>
	<path class="st52" d="M70.4,27.9c0,0.3,0,0.5,0,0.8h-0.1c0-0.1,0-0.1,0-0.2c-0.1-0.2-0.1-0.4,0-0.6C70.3,27.9,70.3,27.9,70.4,27.9z
		"/>
	<path class="st58" d="M71.6,17.9c-0.2-0.2-0.1-0.4-0.1-0.6c0-0.1,0.1-0.1,0.1,0v0.1C71.7,17.6,71.6,17.7,71.6,17.9z"/>
	<path class="st63" d="M4.1,17.5c0-0.1,0-0.2,0.1-0.4c0.1,0.3,0.1,0.5-0.1,0.7C4.2,17.7,4.2,17.6,4.1,17.5z"/>
	<path class="st64" d="M70.5,27.8c0-0.3,0-0.5,0-0.8h0.1C70.6,27.3,70.8,27.6,70.5,27.8z"/>
	<path class="st65" d="M67.3,52.7c-0.1-0.2-0.3-0.4,0.1-0.6C67.4,52.3,67.3,52.5,67.3,52.7z"/>
	<path class="st58" d="M67.2,53.7c-0.1-0.3-0.2-0.5,0.1-0.8c0,0.1,0,0.2,0,0.3C67.3,53.4,67.3,53.6,67.2,53.7z"/>
	<path class="st37" d="M67.2,53.7c0-0.2,0-0.3,0-0.5c0.2,0.2,0.1,0.5,0.1,0.8c-0.1,0-0.1,0-0.2,0C67.2,53.9,67.2,53.8,67.2,53.7z"/>
	<path class="st45" d="M54.8,66.7c0.1-0.3,0.2-0.4,0.5-0.3C55.1,66.4,54.9,66.6,54.8,66.7z"/>
	<path class="st66" d="M39.3,4.7c-0.3,0.2-0.4,0.1-0.5-0.2C39,4.5,39.1,4.6,39.3,4.7z"/>
	<path class="st67" d="M70.9,24.8c0-0.2,0-0.5,0-0.7C71.1,24.3,71.1,24.6,70.9,24.8z"/>
	<path class="st68" d="M69.3,37.6c0-0.3,0-0.5,0.1-0.8C69.3,37,69.5,37.3,69.3,37.6z"/>
	<path class="st51" d="M6.6,40.6h0.1c0,0.1,0,0.2,0,0.2c0,0.1,0,0.2-0.1,0.3H6.5C6.6,41,6.6,40.8,6.6,40.6z"/>
	<path class="st69" d="M67.8,48.4c0,0.2,0,0.4,0,0.6h-0.1C67.7,48.9,67.7,48.6,67.8,48.4z"/>
	<path class="st70" d="M68.9,39.7c0,0.2,0,0.4,0,0.6h-0.1C68.8,40.2,68.7,40,68.9,39.7z"/>
	<path class="st71" d="M68,47.4c0,0.2,0,0.4,0,0.6h-0.1C67.9,48,67.8,47.6,68,47.4z"/>
	<path class="st41" d="M68.8,42.3L68.8,42.3c-0.1,0-0.1,0-0.1,0c0-0.2,0-0.4,0-0.6C68.8,41.8,68.7,42.1,68.8,42.3z"/>
	<path class="st62" d="M66.6,58.2h0.1c0,0.2,0,0.3,0,0.5C66.5,58.6,66.7,58.4,66.6,58.2z"/>
	<path class="st72" d="M8.6,56.9c0-0.1,0-0.2-0.1-0.4c0-0.1,0-0.2,0-0.3h0.1c0,0.2,0,0.3,0,0.5C8.7,56.8,8.6,56.8,8.6,56.9z"/>
	<path class="st73" d="M13.1,12.8C13,13.1,12.8,13,12.6,13C12.8,12.8,13,12.8,13.1,12.8z"/>
	<path class="st62" d="M8.7,57.7c0,0.2,0,0.3,0,0.5c0,0.1,0,0.1,0,0.1H8.6H8.5C8.6,58.1,8.5,57.8,8.7,57.7z"/>
	<path class="st74" d="M24.6,58.8L24.6,58.8L24.6,58.8c-0.2,0.4-0.5,0.2-0.8,0.2c-0.7,0-1.6-0.1-2.3,0.1c-1.6,0-3.2,0.1-4.8-0.1
		v-0.1c0.1-0.5,0.3-0.9,0.5-1.3c0.1-0.2,0.2-0.3,0.2-0.5c0-0.3,0.1-0.4,0.3-0.6c0.2-0.2,0.2-0.4,0.3-0.6c0.1-0.5,0.3-0.9,0.6-1.4
		c0.3-0.7,0.7-1.5,1.1-2.3c0.1-0.5,0.4-1.1,0.6-1.5c0.1-0.5,0.3-0.8,0.6-1.3c0.3-0.5,0.5-1.1,0.7-1.6c0.2-0.6,0.4-1.2,0.7-1.7
		c0.2-0.3,0.4-0.6,0.4-1.1c0.2-0.5,0.4-0.9,0.6-1.5c0.4-0.2,0.4-0.7,0.6-1.1c0-0.2,0-0.5,0.3-0.6c0-0.1,0.1-0.2,0.1-0.3
		c0.1-0.4,0.2-0.8,0.5-1.3c0.4-0.6,0.6-1.3,0.9-2c0-0.3,0.1-0.5,0.3-0.6c0.2-0.3,0.3-0.6,0.4-0.9c0-0.3,0.1-0.4,0.3-0.6
		c0.3-0.3,0.3-0.8,0.5-1.3c0.1-0.5,0.3-1.1,0.6-1.5c0.3-0.2,0.2-0.6,0.4-0.9c0.1-0.2,0.1-0.4,0.3-0.5c0.2-0.2,0.3-0.4,0.3-0.7
		c0-0.5,0.3-0.8,0.4-1.4l0,0c0.1-0.2,0.2-0.5,0.4-0.6c0.2-0.3,0.3-0.5,0.4-0.9c0.2-0.5,0.4-1.1,0.6-1.5c0.4-0.4,0.3-1.1,0.6-1.5
		c0.1-0.2,0.1-0.5,0.3-0.7l0,0c0.4-0.8,0.6-1.8,1.2-2.5c0.3-0.5,0.6-1.2,0.8-1.8c0-0.5,0.2-0.8,0.5-1.3c0.2-0.2,0.3-0.5,0.4-0.9
		c-0.1-0.2,0-0.2,0.1-0.2c0.8-1.8,1.6-3.6,2.4-5.4c0.4,0.2,0.4,0.6,0.6,1.1c0.5,1.1,0.9,2.1,1.5,3.2c0.6,0.9,1.1,2,1.6,3
		c0.5,1.2,1.1,2.3,1.6,3.5c0.4,0.9,0.9,1.9,1.3,2.8c0.2,0.7,0.6,1.4,0.9,2c0.2,0.4,0.5,0.8,0.6,1.3c0.3,0.6,0.6,1.3,0.9,1.9
		c0.8,1.6,1.6,3.2,2.3,4.7c0.2,0.6,0.5,1.3,0.8,1.8c0.2,0.4,0.5,0.7,0.5,1.2c0.2,0.4,0.4,0.9,0.6,1.4c0.4,0.7,0.8,1.5,1.1,2.3
		c0.2,0.6,0.5,1.2,0.8,1.8c0.2,0.2,0.3,0.4,0.3,0.6c0.1,0.3,0.2,0.5,0.4,0.8c0.3,0.5,0.7,1.1,0.8,1.8c0.1,0.5,0.3,0.9,0.6,1.4
		c0.3,0.5,0.7,1.2,0.8,1.8c0.2,0.5,0.6,1.1,0.7,1.6c0.2,0.7,0.6,1.4,0.9,2c0.3,0.4,0.4,0.9,0.7,1.5c0.4,0.9,0.8,1.9,1.3,2.7
		c0.1,0.2,0.3,0.3,0.1,0.5c-0.3,0-0.7,0-1.1,0c-1.4,0-2.6,0.2-4,0c-0.6-0.1-1.3,0-1.9-0.1c-0.2-0.1-0.4,0.1-0.6-0.1
		c0-0.1,0-0.2-0.1-0.2c-0.2-0.2-0.4-0.4-0.3-0.7c-0.1-0.3-0.2-0.5-0.3-0.8c-0.3-0.4-0.5-0.8-0.5-1.4c-0.2-0.6-0.4-1.2-0.7-1.8
		c-0.4-0.6-0.6-1.3-0.8-2c-0.2-0.6-0.4-1.2-0.8-1.8c-0.3-0.4-0.5-0.9-0.6-1.5c0-0.1,0-0.2-0.2-0.3c-2.8,0.1-5.7,0-8.5,0
		c-0.4,0-0.9,0-1.4,0c-2.6,0-5.4,0-8,0c-0.2,0-0.5-0.1-0.7,0.1c-0.3,0.6-0.5,1.5-0.9,2c-0.3,0.5-0.5,1.2-0.6,1.8
		c0,0.6-0.4,1.2-0.6,1.7c-0.2,0.3-0.2,0.7-0.5,0.9c-0.1,0.2-0.1,0.3-0.2,0.5c0.1,0.2-0.1,0.4-0.1,0.5C25.3,57,25,57.8,24.6,58.8z"/>
	<path class="st58" d="M37.4,48.5c3.3,0,6.6-0.1,9.9,0c-0.2,0.2-0.4,0.1-0.7,0.1c-3,0-6.1,0-9.2,0l0,0
		C37.4,48.5,37.3,48.5,37.4,48.5L37.4,48.5z"/>
	<path class="st75" d="M52.4,59c2,0,3.9,0.1,5.9,0.1c-0.8,0.3-1.7,0-2.5,0.1c-0.5,0.1-0.9,0.1-1.5,0c-0.6-0.1-1.3,0.1-1.9-0.1
		C52.3,59.1,52.3,59.1,52.4,59C52.4,59.1,52.4,59,52.4,59z"/>
	<path class="st76" d="M48.7,36c-0.8-1.6-1.6-3.2-2.3-4.7c0,0,0.1-0.2,0.1-0.1c0.7,1.6,1.6,3,2.1,4.7C48.7,35.9,48.7,36,48.7,36z"/>
	<path class="st77" d="M42.7,23.3c-0.6-1.2-1.2-2.3-1.6-3.5c0,0,0.1-0.1,0.2,0c0.7,1.1,1.1,2.2,1.6,3.4
		C42.8,23.2,42.7,23.3,42.7,23.3z"/>
	<path class="st78" d="M41.2,19.8c-0.1,0-0.1,0-0.2,0c-0.5-0.9-1.1-2-1.5-3c0-0.1,0.1-0.3,0.2-0.1C40.3,17.7,40.9,18.6,41.2,19.8z"
		/>
	<path class="st76" d="M59.4,59.1c-0.4-1.1-0.9-2.2-1.5-3.3v-0.1l0,0c0.6,0.9,1.1,2.1,1.6,3.2C59.6,58.9,59.6,59.1,59.4,59.1z"/>
	<path class="st79" d="M42.7,23.3c0-0.1,0.1-0.1,0.1-0.2c0.3,0.7,0.7,1.6,1.1,2.3c0.1,0.2,0.2,0.4,0.1,0.6
		C43.4,25.2,43.1,24.2,42.7,23.3z"/>
	<path class="st80" d="M51.7,42.7c-0.4-0.7-0.7-1.5-1.1-2.3c0-0.1,0.1-0.2,0.1-0.1c0.4,0.7,0.7,1.5,1.1,2.3
		C51.9,42.6,51.8,42.6,51.7,42.7z"/>
	<path class="st81" d="M48.9,52.1c0.3,0.6,0.5,1.4,0.8,2l-0.1,0.1C49.3,53.5,48.9,52.9,48.9,52.1z"/>
	<path class="st82" d="M54,47.6c-0.3-0.5-0.6-1.2-0.8-1.8v-0.1C53.6,46,54.1,47.2,54,47.6z"/>
	<path class="st83" d="M55.6,50.8c-0.3-0.6-0.5-1.3-0.8-1.9C55.3,49.5,55.5,50.2,55.6,50.8L55.6,50.8z"/>
	<path class="st84" d="M47.5,48.8c0.3,0.5,0.5,0.9,0.6,1.5C47.6,49.9,47.5,49.3,47.5,48.8z"/>
	<path class="st85" d="M50.6,55.8c0.2,0.4,0.5,0.8,0.5,1.4c0,0.1-0.1,0.1-0.1,0.2C50.9,56.8,50.3,56.4,50.6,55.8z"/>
	<path class="st86" d="M57.9,55.6v0.1c-0.3-0.4-0.5-0.9-0.7-1.5C57.8,54.7,57.8,55.2,57.9,55.6z"/>
	<path class="st87" d="M50,39c-0.2-0.4-0.4-0.8-0.5-1.2v-0.1C49.8,38.1,50.2,38.5,50,39z"/>
	<path class="st88" d="M45.5,29.4c-0.2-0.4-0.5-0.8-0.6-1.3C45.3,28.4,45.6,28.8,45.5,29.4z"/>
	<path class="st89" d="M68.2,44.8c-0.1,0.5-0.1,1.1-0.2,1.5h-0.1c0,0-0.1,0-0.1-0.1C68,45.7,67.7,45.2,68.2,44.8z"/>
	<path class="st54" d="M55.6,50.8L55.6,50.8c0.4,0.4,0.7,0.9,0.7,1.6C56,51.9,55.7,51.4,55.6,50.8z"/>
	<path class="st25" d="M67,54c0.1,0.6-0.1,1.2-0.2,1.7c-0.3-0.6,0.1-1.2,0-1.7C66.9,54,66.9,54,67,54L67,54z"/>
	<path class="st90" d="M54.3,59.3c0.5,0,0.9,0,1.5,0C55.3,59.5,54.8,59.5,54.3,59.3z"/>
	<path class="st58" d="M52.9,45.1c-0.1-0.2-0.2-0.4-0.3-0.6c0-0.2,0.1-0.2,0.2,0C52.9,44.6,53.1,44.8,52.9,45.1z"/>
	<path class="st91" d="M54.4,9.8c0.4-0.1,0.7,0.2,1.1,0.3C55.1,10.3,54.8,10.1,54.4,9.8z"/>
	<path class="st92" d="M51.5,57.9c0.1,0.2,0.2,0.5,0.3,0.7C51.5,58.6,51.3,58.4,51.5,57.9z"/>
	<path class="st66" d="M58.5,59.4c0.3-0.1,0.5-0.1,0.8-0.1C59.1,59.4,58.9,59.4,58.5,59.4z"/>
	<path class="st60" d="M70.7,25.9c-0.1,0.2,0.1,0.5-0.1,0.8c0-0.3-0.1-0.6,0.1-0.9V25.9z"/>
	<path class="st93" d="M70.7,25.9c0-0.1,0-0.1,0-0.2c0.1-0.2-0.1-0.5,0.1-0.8c0,0.3,0,0.6,0,0.9C70.7,25.9,70.7,25.9,70.7,25.9z"/>
	<path class="st0" d="M68.1,46.3c0.1,0.3,0.1,0.6-0.1,0.8V47C67.9,46.8,67.9,46.6,68.1,46.3C68,46.3,68,46.3,68.1,46.3z"/>
	<path class="st58" d="M71.8,16.1c0,0.2,0,0.5,0,0.7C71.6,16.6,71.5,16.3,71.8,16.1z"/>
	<path class="st0" d="M66.7,57.1c0,0.3,0.1,0.5-0.1,0.8C66.7,57.6,66.6,57.3,66.7,57.1z"/>
	<path class="st58" d="M70.3,28c0,0.2,0,0.4,0,0.6C70.1,28.3,70,28.1,70.3,28z"/>
	<path class="st45" d="M66,13.7c0.2,0.1,0.3,0.1,0.5,0.2C66.2,14,66.1,14,66,13.7z"/>
	<path class="st65" d="M68,46.3c0,0.3,0,0.5,0,0.8c-0.2-0.2-0.1-0.5-0.1-0.8C67.9,46.3,67.9,46.3,68,46.3z"/>
	<path class="st58" d="M70,30.5c-0.2-0.2-0.2-0.3-0.1-0.6C70,30.1,70,30.3,70,30.5L70,30.5z"/>
	<path class="st58" d="M71.4,19.8c-0.2-0.2-0.1-0.3,0-0.5C71.4,19.4,71.4,19.6,71.4,19.8L71.4,19.8z"/>
	<path class="st58" d="M52.4,59v0.1c-0.2,0.1-0.4,0.1-0.5-0.2C52.1,59,52.2,59,52.4,59z"/>
	<path class="st58" d="M71,20.5c0-0.1,0-0.2,0-0.3c0.2,0,0.1,0.1,0.1,0.2C71.1,20.4,71.1,20.5,71,20.5C71.1,20.5,71.1,20.5,71,20.5z
		"/>
	<path class="st72" d="M37.4,48.5v0.1c-2.6,0-5.4,0-8,0c-0.2,0-0.5-0.1-0.7,0.1c-0.1,0-0.1,0-0.2,0c0-0.3,0.2-0.3,0.4-0.3
		C31.7,48.4,34.6,48.4,37.4,48.5z"/>
	<path class="st94" d="M16.6,59c1.6,0,3.2,0,4.7,0c0.4-0.1,0.9,0,1.4,0c0.1,0,0.2,0.1,0.2,0.2c-0.3,0-0.7,0-1.1,0
		c-1.5,0.1-2.8,0.1-4.3,0C17.2,59.1,16.9,59.3,16.6,59z"/>
	<path class="st95" d="M24.6,58.8c0.2-0.9,0.6-1.8,1.1-2.7c0.1,0,0.1,0.1,0.1,0.1C25.3,57,25.2,57.9,24.6,58.8z"/>
	<path class="st96" d="M22.9,59.1c-0.5-0.3-1.1,0-1.6-0.1c0.8-0.2,1.6-0.1,2.4-0.1c0.2,0,0.5,0,0.7-0.1c-0.1,0.4-0.4,0.4-0.6,0.3
		C23.5,59,23.2,59.1,22.9,59.1z"/>
	<path class="st97" d="M17.6,59.2c1.5,0,2.8,0,4.3,0c-0.6,0.2-1.3,0.1-1.9,0.1C19.1,59.2,18.4,59.4,17.6,59.2z"/>
	<path class="st98" d="M33.1,22c-0.4,0.8-0.6,1.8-1.2,2.5c0.2-0.9,0.6-1.8,1.1-2.6C33,22,33.1,22,33.1,22L33.1,22z"/>
	<path class="st99" d="M28.5,48.7c0.1,0,0.1,0,0.2,0c-0.1,0.7-0.5,1.4-0.7,2c0,0,0,0.2-0.1,0.1v-0.2C28,49.9,28.3,49.3,28.5,48.7z"
		/>
	<path class="st100" d="M26.4,54c0.1-0.6,0.4-1.2,0.6-1.7c0.2,0.2,0.1,0.3,0,0.5c-0.2,0.5-0.3,1.1-0.6,1.5
		C26.4,54.3,26.4,54.2,26.4,54z"/>
	<path class="st101" d="M22.4,46c-0.2,0.5-0.4,1.2-0.7,1.7C21.6,47.1,22.1,46.2,22.4,46z"/>
	<path class="st102" d="M23.3,43.4c0,0.5-0.2,1.1-0.6,1.5C22.7,44.4,23.1,44,23.3,43.4z"/>
	<path class="st103" d="M28.1,33.3c-0.2,0.5-0.3,1.1-0.6,1.5C27.3,34.2,27.8,33.5,28.1,33.3z"/>
	<path class="st104" d="M24.9,40.2c-0.2,0.4-0.2,0.8-0.5,1.3C24.3,40.9,24.5,40.5,24.9,40.2z"/>
	<path class="st105" d="M18.6,54.4c-0.1,0.5-0.3,0.9-0.6,1.4c0-0.6,0.3-1.1,0.5-1.6C18.6,54,18.6,54.3,18.6,54.4z"/>
	<path class="st42" d="M20.4,50.6c-0.2,0.5-0.4,0.9-0.6,1.5C19.6,51.4,20,51,20.4,50.6C20.3,50.6,20.3,50.6,20.4,50.6z"/>
	<path class="st106" d="M31,26.7c-0.1,0.5-0.4,1.1-0.6,1.5c0-0.6,0.3-1.1,0.5-1.6C30.9,26.7,30.9,26.7,31,26.7L31,26.7z"/>
	<path class="st107" d="M17.2,57.5c-0.1,0.5-0.3,0.8-0.5,1.3C16.5,58.2,16.8,57.9,17.2,57.5z"/>
	<path class="st108" d="M34.5,19.1c-0.2,0.4-0.3,0.8-0.5,1.3C33.7,19.7,34.1,19.4,34.5,19.1z"/>
	<path class="st109" d="M20.4,50.6C20.4,50.6,20.3,50.6,20.4,50.6C20.3,50.6,20.3,50.6,20.4,50.6c0-0.5,0.1-0.9,0.6-1.4
		C20.7,49.6,20.6,50.2,20.4,50.6z"/>
	<path class="st110" d="M29.5,29.8c0,0.5-0.3,0.9-0.4,1.4C28.9,30.6,29.3,30.2,29.5,29.8z"/>
	<path class="st111" d="M26.4,54c0,0.1,0,0.2,0,0.3c0,0.3,0,0.6-0.4,0.6C26.1,54.7,26.3,54.4,26.4,54z"/>
	<path class="st112" d="M26.2,37.6c-0.1,0.2-0.2,0.4-0.3,0.6c-0.2-0.3,0-0.5,0.1-0.8C26.1,37.3,26.2,37.4,26.2,37.6z"/>
	<path class="st113" d="M24.3,41.8c-0.1,0.2-0.2,0.4-0.3,0.6C23.8,42.1,23.9,41.9,24.3,41.8z"/>
	<path class="st72" d="M8.7,58.4v-0.1c0.1,0,0.2,0,0.2,0c0,0.2,0.1,0.5-0.1,0.8C8.8,58.8,8.7,58.6,8.7,58.4z"/>
	<path class="st114" d="M26.8,36c0,0.2-0.2,0.4-0.3,0.6C26.4,36.3,26.6,36.1,26.8,36z"/>
	<path class="st114" d="M30,29.1c-0.1,0.2-0.1,0.5-0.4,0.6C29.6,29.6,29.5,29.2,30,29.1z"/>
	<path class="st107" d="M17.8,56.4c0,0.2-0.2,0.4-0.3,0.6C17.4,56.7,17.5,56.5,17.8,56.4z"/>
	<path class="st72" d="M9,60.2c0-0.2,0-0.4,0-0.6c0,0,0-0.3,0.1-0.1s0,0.4,0,0.5C9.2,60.1,9,60.1,9,60.2z"/>
	<path class="st115" d="M7.8,49.7c-0.2-0.3-0.1-0.6-0.1-0.9C7.9,49.1,7.8,49.4,7.8,49.7z"/>
	<path class="st116" d="M28.7,31.9c0,0.2-0.1,0.4-0.3,0.5C28.5,32.2,28.4,31.9,28.7,31.9z"/>
	<path class="st0" d="M7.9,50.8c-0.2-0.2-0.1-0.5-0.1-0.8c0,0.1,0.1,0.3,0.1,0.4C7.9,50.6,7.9,50.7,7.9,50.8z"/>
	<path class="st117" d="M32,24.5c0,0.3-0.1,0.5-0.3,0.7C31.6,24.9,31.7,24.7,32,24.5z"/>
	<path class="st49" d="M25.8,56.1L25.7,56c0.1-0.2,0.1-0.3,0.2-0.5C26.1,55.7,25.8,55.9,25.8,56.1z"/>
	<path class="st0" d="M7.7,48.4c-0.2-0.2-0.1-0.4-0.1-0.7c0,0.1,0.1,0.2,0.1,0.3C7.7,48.2,7.7,48.3,7.7,48.4z"/>
	<path class="st118" d="M35,17.9c0,0.1-0.1,0.2-0.1,0.2c-0.2-0.1-0.1-0.3,0-0.4C35,17.7,35,17.8,35,17.9z"/>
	<path class="st0" d="M5.4,28.8c-0.2-0.3-0.1-0.6-0.1-0.9C5.4,28.2,5.4,28.5,5.4,28.8z"/>
	<path class="st0" d="M6.4,38.4c-0.2-0.3-0.1-0.6-0.1-0.9C6.5,37.8,6.4,38.1,6.4,38.4z"/>
	<path class="st0" d="M5.5,31.1c0-0.3,0-0.5,0-0.8c0.1,0.3,0.1,0.5,0.1,0.8C5.6,31.1,5.6,31.1,5.5,31.1z"/>
	<path class="st0" d="M6.7,40.5c-0.2-0.2-0.1-0.5-0.1-0.8C6.7,40,6.7,40.3,6.7,40.5z"/>
	<path class="st1" d="M37.4,27.8c0-0.2,0.1-0.4,0.3-0.1c0.2,0.3,0.3,0.6,0.4,0.9c0.1,0.5,0.4,1.1,0.7,1.5c0.4,0.5,0.6,1.2,0.9,1.8
		c0.1,0.5,0.3,0.9,0.6,1.3c0.3,0.6,0.6,1.2,0.9,1.8c0.1,0.6,0.4,1.1,0.7,1.6c0.3,0.6,0.7,1.4,1.1,2c0,0.4,0.2,0.7,0.4,1.1
		c0.2,0.5,0.5,1.1,0.7,1.5c0.2,0.9,0.2,0.9-0.8,0.9c-1.8,0-3.6,0-5.4,0c-0.3,0-0.6-0.1-0.6-0.4c-0.1-1.1,0-2.1,0-3.2
		c0-2.9,0-5.8,0-8.7C37.2,29,37.2,28.4,37.4,27.8z"/>
	<path class="st2" d="M37.4,27.8c0,4.7,0,9.4,0,14.1c0,0-0.1,0-0.1,0.1c-1.3,0.1-2.6,0-3.9,0.1c-0.4,0-0.8,0-1.4,0
		c-0.2,0-0.4,0-0.5-0.2c0-0.2,0.1-0.4,0.2-0.5c0.1-0.1,0.2-0.2,0.1-0.4c0.1-0.3,0.2-0.5,0.4-0.8c0.2-0.1,0.2-0.3,0.3-0.4
		c0.2-0.5,0.5-1.1,0.6-1.7c0.2-0.3,0.3-0.6,0.4-0.9c0-0.2,0.1-0.4,0.2-0.6c0.3-0.3,0.3-0.8,0.5-1.2c0-0.2,0.3-0.4,0.2-0.6
		c0.3-0.7,0.6-1.6,1.1-2.3c0.3-0.4,0.5-0.9,0.5-1.5C36.6,29.7,37,28.7,37.4,27.8z"/>
	<path class="st119" d="M37.4,41.9c2.1,0.1,4.3,0,6.4,0.1c0.4,0,0.4-0.1,0.2-0.4c-0.1-0.1-0.1-0.3,0-0.4c0.2,0.3,0.3,0.6,0.5,1.1
		c-2.4,0-4.8,0-7.1,0C37.3,42.1,37.3,42,37.4,41.9L37.4,41.9z"/>
	<path class="st120" d="M37.4,41.9c0,0.1,0,0.2,0,0.2c-1.9,0-3.8,0-5.7,0c-0.4,0-0.4-0.1-0.2-0.4c0.6,0.3,1.4,0.1,2,0.2
		C34.9,42,36.2,41.9,37.4,41.9z"/>
	<path class="st121" d="M33.3,37.9c-0.1,0.6-0.4,1.2-0.6,1.7c0,0.1-0.1,0.1-0.1,0c0.2-0.6,0.4-1.3,0.7-1.9
		C33.3,37.8,33.3,37.8,33.3,37.9z"/>
	<path class="st122" d="M41.8,36.5c-0.4-0.3-0.7-1.2-0.7-1.6C41.4,35.4,41.7,35.9,41.8,36.5z"/>
	<path class="st88" d="M40.3,33.1c-0.4-0.3-0.7-0.7-0.6-1.3C39.8,32.3,40.2,32.6,40.3,33.1z"/>
	<path class="st123" d="M36.3,30.6c0.1,0.6-0.1,1.1-0.5,1.5C35.7,31.6,36.1,31,36.3,30.6z"/>
	<path class="st124" d="M34.6,35c-0.2,0.4-0.4,0.8-0.6,1.3c0,0,0,0-0.1,0l0,0c0-0.5,0.3-0.8,0.4-1.3C34.5,34.8,34.6,34.9,34.6,35z"
		/>
	<path class="st125" d="M38.8,30.1c-0.4-0.4-0.7-0.8-0.7-1.5C38.4,29,38.7,29.6,38.8,30.1z"/>
	<path class="st126" d="M43.3,39.5c-0.4-0.2-0.5-0.5-0.4-1.1C43.1,38.8,43.3,39.1,43.3,39.5z"/>
	<path class="st127" d="M33.3,37.9c0-0.1,0-0.1,0-0.2c0.1-0.3,0.2-0.6,0.4-0.8C33.7,37.2,33.5,37.6,33.3,37.9z"/>
	<path class="st128" d="M34.6,35c-0.1,0-0.2-0.1-0.2-0.1c0.1-0.2,0.2-0.3,0.3-0.5C34.9,34.6,34.6,34.8,34.6,35z"/>
	<path class="st129" d="M32.5,39.5h0.1c0,0.2,0,0.4-0.3,0.4C32.4,39.9,32.4,39.7,32.5,39.5z"/>
	<path class="st129" d="M32,40.8c0.2,0.2,0.1,0.3-0.1,0.4C31.9,41,31.9,40.9,32,40.8z"/>
</g>
</svg>
