<svg xmlns="http://www.w3.org/2000/svg" version="1.1" xmlns:xlink="http://www.w3.org/1999/xlink" width="" height="" x="0" y="0" viewBox="0 0 512 512" style="enable-background:new 0 0 512 512" xml:space="preserve" class=""><g><path d="M512 256c0 82.317-38.86 155.564-99.234 202.397C369.455 492.001 315.068 512 256 512s-113.455-19.999-156.766-53.603C38.86 411.564 0 338.317 0 256 0 114.615 114.615 0 256 0s256 114.615 256 256z" style="" fill="#f2f2f2" data-original="#f2f2f2" class=""></path><path d="m441.992 119.474-29.226 338.923C369.455 492.001 315.068 512 256 512s-113.455-19.999-156.766-53.603L70.008 119.474h371.984z" style="" fill="#006bc0" data-original="#006bc0" class=""></path><path d="M255.997 151.338v353.958l122.272-34.519 27.276-319.439z" style="" fill="#0096dc" data-original="#0096dc" class=""></path><path d="M364.036 289.787H275.85l92.149-46.897 3.982-47.144H140.013l4.059 48.065h93.117l-89.344 44.673 4.157 49.239h159.374l-5.224 58.643-50.155 13.584-52.245-14.629-1.306-36.571h-48.668l6.088 72.098 96.131 27.167 96.13-27.167 11.912-141.069z" style="" fill="#ffffff" data-original="#ffffff" class=""></path><path d="M165.352 67.224V33.787h48.065V15.676h-65.48v69.659h65.48V67.224zM241.542 42.93v-8.36h47.805V15.676h-65.481v43.188h46.933v8.36h-46.933v18.111h65.481V42.93zM316.252 42.93v-8.36h47.804V15.676h-65.48v43.188h46.933v8.36h-46.933v18.111h65.48V42.93z" style="" fill="#222123" data-original="#222123" class=""></path></g></svg>