<svg width="60" height="60" viewBox="0 0 60 60" fill="none" xmlns="http://www.w3.org/2000/svg">
<g clip-path="url(#clip0_3_61)">
<path d="M57.7656 33.4644C57.6833 33.4589 23.0713 33.4616 23.0283 33.4634C22.3895 33.4899 21.9211 34.0214 21.9231 34.6191V55.3846C21.9231 57.2933 23.4759 58.8461 25.3846 58.8461H55.3846C57.2933 58.8461 58.8462 57.2933 58.8462 55.3846V34.6203C58.8487 34.0179 58.3815 33.5036 57.7656 33.4644ZM54.1612 35.7692C42.7227 44.1386 42.5288 44.2803 42.5169 44.2892C41.2715 45.2235 39.5401 45.2553 38.2412 44.2811L26.608 35.7692H54.1612ZM56.5385 55.3846C56.5385 56.0208 56.0208 56.5384 55.3846 56.5384H25.3846C24.7484 56.5384 24.2308 56.0208 24.2308 55.3846V36.8894L36.8729 46.1394C37.886 46.8988 39.118 47.3093 40.3841 47.3094C41.6502 47.3095 42.8822 46.8991 43.8954 46.1399L56.5385 36.8894V55.3846Z" fill="#4770FF"/>
<path d="M18.4615 56.5385H3.46154V3.46153H31.1538V11.5385C31.1538 12.1757 31.6705 12.6923 32.3077 12.6923H40.3846V30C40.3846 30.6371 40.9013 31.1538 41.5385 31.1538C42.1756 31.1538 42.6923 30.6371 42.6923 30C42.6906 10.2742 42.7027 11.4808 42.6706 11.3173C42.6615 11.253 42.6177 11.1134 42.561 11.0048C42.5063 10.9018 42.4371 10.8072 42.3556 10.7237L33.1237 1.49169C33.104 1.4738 33.0813 1.44807 33.0073 1.39153C32.9175 1.32138 32.8171 1.26592 32.7099 1.22722C32.5937 1.18284 32.4707 1.15865 32.3463 1.15569C32.3333 1.15534 32.3206 1.15384 32.3077 1.15384H2.30769C1.67042 1.15384 1.15385 1.67042 1.15385 2.30769V57.6923C1.15385 58.3295 1.67042 58.8461 2.30769 58.8461H18.4615C19.0988 58.8461 19.6154 58.3295 19.6154 57.6923C19.6154 57.0551 19.0988 56.5385 18.4615 56.5385ZM33.4615 10.3846V5.0933L38.7527 10.3846H33.4615Z" fill="#4770FF"/>
<path d="M6.92308 17.3077H11.5385C12.1757 17.3077 12.6923 16.7911 12.6923 16.1538C12.6923 15.5166 12.1757 15 11.5385 15H6.92308C6.28581 15 5.76923 15.5166 5.76923 16.1538C5.76923 16.7911 6.28592 17.3077 6.92308 17.3077ZM6.92308 21.9231H17.3077C17.945 21.9231 18.4615 21.4065 18.4615 20.7692C18.4615 20.132 17.945 19.6154 17.3077 19.6154H6.92308C6.28581 19.6154 5.76923 20.132 5.76923 20.7692C5.76923 21.4065 6.28592 21.9231 6.92308 21.9231ZM31.1538 25.3846C31.1538 24.7473 30.6372 24.2308 30 24.2308H6.92308C6.28581 24.2308 5.76923 24.7473 5.76923 25.3846C5.76923 26.0219 6.28581 26.5385 6.92308 26.5385H30C30.6372 26.5385 31.1538 26.0219 31.1538 25.3846ZM6.92308 28.8461C6.28581 28.8461 5.76923 29.3627 5.76923 30C5.76923 30.6371 6.28581 31.1538 6.92308 31.1538H25.3846C26.0219 31.1538 26.5385 30.6371 26.5385 30C26.5385 29.3627 26.0219 28.8461 25.3846 28.8461H6.92308ZM18.4615 33.4615H6.92308C6.28581 33.4615 5.76923 33.9782 5.76923 34.6154C5.76923 35.2525 6.28581 35.7692 6.92308 35.7692H18.4615C19.0988 35.7692 19.6154 35.2525 19.6154 34.6154C19.6154 33.9782 19.0988 33.4615 18.4615 33.4615ZM6.92308 40.3846H11.5385C12.1757 40.3846 12.6923 39.8679 12.6923 39.2308C12.6923 38.5936 12.1757 38.0769 11.5385 38.0769H6.92308C6.28581 38.0769 5.76923 38.5936 5.76923 39.2308C5.76923 39.8679 6.28592 40.3846 6.92308 40.3846ZM36.9231 19.6154H21.9231C21.2858 19.6154 20.7692 20.132 20.7692 20.7692C20.7692 21.4065 21.2858 21.9231 21.9231 21.9231H36.9231C37.5602 21.9231 38.0769 21.4065 38.0769 20.7692C38.0769 20.132 37.5602 19.6154 36.9231 19.6154ZM36.9231 24.2308H34.6154C33.9782 24.2308 33.4615 24.7473 33.4615 25.3846C33.4615 26.0219 33.9782 26.5385 34.6154 26.5385H36.9231C37.5602 26.5385 38.0769 26.0219 38.0769 25.3846C38.0769 24.7473 37.5602 24.2308 36.9231 24.2308ZM30 31.1538H36.9231C37.5602 31.1538 38.0769 30.6371 38.0769 30C38.0769 29.3627 37.5602 28.8461 36.9231 28.8461H30C29.3627 28.8461 28.8462 29.3627 28.8462 30C28.8462 30.6371 29.3627 31.1538 30 31.1538ZM18.4615 38.0769H16.1538C15.5166 38.0769 15 38.5936 15 39.2308C15 39.8679 15.5166 40.3846 16.1538 40.3846H18.4615C19.0988 40.3846 19.6154 39.8679 19.6154 39.2308C19.6154 38.5936 19.0988 38.0769 18.4615 38.0769ZM18.4615 42.6923H6.92308C6.28581 42.6923 5.76923 43.209 5.76923 43.8461C5.76923 44.4833 6.28581 45 6.92308 45H18.4615C19.0988 45 19.6154 44.4833 19.6154 43.8461C19.6154 43.209 19.0988 42.6923 18.4615 42.6923ZM18.4615 47.3077H6.92308C6.28581 47.3077 5.76923 47.8244 5.76923 48.4615C5.76923 49.0987 6.28581 49.6154 6.92308 49.6154H18.4615C19.0988 49.6154 19.6154 49.0987 19.6154 48.4615C19.6154 47.8244 19.0988 47.3077 18.4615 47.3077ZM11.5385 54.3461C12.1757 54.3461 12.6923 53.8295 12.6923 53.1923C12.6923 52.5551 12.1757 52.0385 11.5385 52.0385H6.92308C6.28581 52.0385 5.76923 52.5551 5.76923 53.1923C5.76923 53.8295 6.28581 54.3461 6.92308 54.3461H11.5385ZM36.9231 15H16.1538C15.5166 15 15 15.5166 15 16.1538C15 16.7911 15.5166 17.3077 16.1538 17.3077H36.9231C37.5602 17.3077 38.0769 16.7911 38.0769 16.1538C38.0769 15.5166 37.5602 15 36.9231 15ZM6.92308 12.6923H27.6923C28.3296 12.6923 28.8462 12.1757 28.8462 11.5385V6.92307C28.8462 6.2858 28.3296 5.76923 27.6923 5.76923H6.92308C6.28581 5.76923 5.76923 6.2858 5.76923 6.92307V11.5385C5.76923 12.1757 6.28592 12.6923 6.92308 12.6923ZM8.07692 8.07692H26.5385V10.3846H8.07692V8.07692ZM46.1538 54.2308H53.0769C53.7141 54.2308 54.2308 53.7141 54.2308 53.0769C54.2308 52.4398 53.7141 51.9231 53.0769 51.9231H46.1538C45.5167 51.9231 45 52.4398 45 53.0769C45 53.7141 45.5167 54.2308 46.1538 54.2308ZM49.6154 49.6154H53.0769C53.7141 49.6154 54.2308 49.0987 54.2308 48.4615C54.2308 47.8244 53.7141 47.3077 53.0769 47.3077H49.6154C48.9782 47.3077 48.4615 47.8244 48.4615 48.4615C48.4615 49.0987 48.9782 49.6154 49.6154 49.6154Z" fill="#4770FF"/>
</g>
<defs>
<clipPath id="clip0_3_61">
<rect width="60" height="60" fill="white"/>
</clipPath>
</defs>
</svg>
