<svg width="60" height="60" viewBox="0 0 60 60" fill="none" xmlns="http://www.w3.org/2000/svg">
<g clip-path="url(#clip0_1_5)">
<path d="M7.00007 5.00014C7.00007 5.5521 6.55242 5.99987 5.99988 5.99987C5.73474 5.99984 5.48048 5.8945 5.293 5.70702C5.10552 5.51954 5.00018 5.26528 5.00015 5.00014C5.00015 4.73494 5.10551 4.48059 5.29303 4.29307C5.48056 4.10554 5.73491 4.00018 6.00011 4.00018C6.26532 4.00018 6.51966 4.10554 6.70719 4.29307C6.89472 4.48059 7.00007 4.73494 7.00007 5.00014ZM11 5.00014C11 5.5521 10.5524 5.99987 9.99984 5.99987C9.73471 5.99984 9.48044 5.8945 9.29296 5.70702C9.10548 5.51954 9.00014 5.26528 9.00011 5.00014C9.00011 4.73494 9.10547 4.48059 9.293 4.29307C9.48052 4.10554 9.73487 4.00018 10.0001 4.00018C10.2653 4.00018 10.5196 4.10554 10.7072 4.29307C10.8947 4.48059 11 4.73494 11 5.00014ZM15 5.00014C15 5.5521 14.5523 5.99987 13.9998 5.99987C13.7347 5.99984 13.4804 5.8945 13.2929 5.70702C13.1054 5.51954 13.0001 5.26528 13.0001 5.00014C13.0001 4.73494 13.1054 4.48059 13.293 4.29307C13.4805 4.10554 13.7348 4.00018 14 4.00018C14.2652 4.00018 14.5196 4.10554 14.7071 4.29307C14.8946 4.48059 15 4.73494 15 5.00014ZM45 5.00014C45 5.5521 44.5523 5.99987 43.9998 5.99987C43.7347 5.99984 43.4804 5.8945 43.2929 5.70702C43.1054 5.51954 43.0001 5.26528 43.0001 5.00014C43.0001 4.86883 43.0259 4.7388 43.0762 4.61748C43.1264 4.49615 43.2001 4.38592 43.293 4.29307C43.3858 4.20021 43.496 4.12655 43.6174 4.0763C43.7387 4.02605 43.8687 4.00018 44 4.00018C44.1314 4.00018 44.2614 4.02605 44.3827 4.0763C44.504 4.12655 44.6143 4.20021 44.7071 4.29307C44.8 4.38592 44.8736 4.49615 44.9239 4.61748C44.9741 4.7388 45 4.86883 45 5.00014Z" fill="#4770FF"/>
<path d="M56.9998 31.0002H50.0002V5.00016C49.9965 2.2398 47.7599 0.00328125 45 0H5.00016C2.2398 0.00316406 0.00328125 2.2398 0 5.00016V39.0001C0.00316406 41.7599 2.2398 43.9965 5.00016 43.9998V58.0001C5.00016 59.1046 5.89547 60 7.00008 60H13.0001C14.1046 60 15 59.1047 15 58.0001V43.9997H28.9998V56.9998C28.9998 58.6569 30.3434 60 31.9999 60H56.9998C58.657 60 60 58.657 60 56.9998V34C60 32.3433 58.657 31.0002 56.9998 31.0002ZM5.00016 1.99992H45C46.6567 1.99992 48.0002 3.34301 48.0002 5.00016V7.99992H1.99992V5.00016C1.99992 3.34312 3.34301 1.99992 5.00016 1.99992ZM7.00008 58.0001V13.9997H13.0001V16.9999H11C10.8678 16.9985 10.7366 17.0233 10.614 17.0729C10.4914 17.1225 10.3799 17.196 10.2859 17.289C10.1919 17.382 10.1172 17.4927 10.0663 17.6147C10.0154 17.7368 9.98914 17.8677 9.98914 17.9999C9.98914 18.1322 10.0154 18.2631 10.0663 18.3852C10.1172 18.5072 10.1919 18.6179 10.2859 18.7109C10.3799 18.8039 10.4914 18.8774 10.614 18.927C10.7366 18.9766 10.8678 19.0014 11 19H13.0001V20.9999H11.9998C11.7346 21 11.4803 21.1054 11.2928 21.293C11.1054 21.4805 11.0001 21.7349 11.0002 22.0001C11.0002 22.5521 11.4478 22.9999 11.9998 22.9999H13.0001V24.9998H11.9998C11.7346 24.9999 11.4803 25.1054 11.2928 25.2929C11.1054 25.4805 11.0001 25.7349 11.0002 26C11.0002 26.5521 11.4478 26.9998 11.9998 26.9998H13.0001V28.9998H11C10.7374 29.0038 10.4869 29.111 10.3026 29.2981C10.1183 29.4852 10.015 29.7374 10.015 30C10.015 30.2626 10.1183 30.5148 10.3026 30.7019C10.4869 30.889 10.7374 30.9962 11 31.0002H13.0001V33.0002H11.9998C11.7347 33.0003 11.4805 33.1056 11.293 33.2931C11.1056 33.4805 11.0002 33.7347 11.0002 33.9998C11.0001 34.1312 11.0259 34.2612 11.0761 34.3825C11.1263 34.5039 11.2 34.6141 11.2928 34.707C11.3856 34.7999 11.4958 34.8736 11.6171 34.9239C11.7384 34.9742 11.8684 35.0001 11.9998 35.0002H13.0001V37.0001H11.9998C11.7346 37.0001 11.4804 37.1055 11.2929 37.293C11.1055 37.4805 11.0002 37.7348 11.0002 37.9999C11.0001 38.2651 11.1054 38.5195 11.2928 38.707C11.4803 38.8946 11.7346 39 11.9998 39.0001H13.0001V41H11C10.7348 41 10.4805 41.1054 10.2929 41.2929C10.1054 41.4805 10 41.7348 10 42.0001C10 42.2653 10.1054 42.5196 10.2929 42.7072C10.4805 42.8947 10.7348 43.0001 11 43.0001H13.0001V45H11.9998C11.7346 45.0001 11.4803 45.1055 11.2928 45.2931C11.1054 45.4807 11.0001 45.735 11.0002 46.0002C11.0002 46.5523 11.4478 46.9999 11.9998 46.9999H13.0001V49H11.9998C11.7346 49.0001 11.4803 49.1055 11.2928 49.2931C11.1054 49.4806 11.0001 49.735 11.0002 50.0002C11.0002 50.5521 11.4478 50.9999 11.9998 50.9999H13.0001V52.9999H11C10.8674 52.9979 10.7357 53.0223 10.6126 53.0716C10.4895 53.1209 10.3775 53.1943 10.283 53.2873C10.1885 53.3804 10.1135 53.4913 10.0622 53.6136C10.011 53.736 9.98465 53.8673 9.98465 53.9999C9.98465 54.1325 10.011 54.2638 10.0622 54.3861C10.1135 54.5085 10.1885 54.6194 10.283 54.7124C10.3775 54.8055 10.4895 54.8788 10.6126 54.9282C10.7357 54.9775 10.8674 55.0019 11 54.9998H13.0001V58.0001H7.00008ZM15 41.9998V13.9998C15 12.8952 14.1047 11.9998 13.0001 11.9998H7.00008C5.89559 11.9998 5.00016 12.8952 5.00016 13.9998V41.9998C3.34312 41.9998 1.99992 40.6568 1.99992 39.0001V9.99984H48.0002V31.0002H31.9999C30.3434 31.0002 28.9998 32.3433 28.9998 34V41.9998H15ZM58.0001 56.9998C58.0001 57.1311 57.9743 57.2612 57.924 57.3826C57.8737 57.504 57.8001 57.6143 57.7072 57.7072C57.6143 57.8001 57.504 57.8737 57.3826 57.924C57.2612 57.9743 57.1311 58.0001 56.9998 58.0001H31.9999C31.8686 58 31.7386 57.9741 31.6173 57.9238C31.496 57.8735 31.3858 57.7998 31.2929 57.7069C31.2001 57.6141 31.1265 57.5038 31.0763 57.3825C31.0261 57.2611 31.0003 57.1311 31.0003 56.9998V34C31.0003 33.4479 31.448 33.0002 31.9999 33.0002H56.9998C57.1311 33.0002 57.2611 33.026 57.3825 33.0762C57.5038 33.1264 57.6141 33.2 57.7069 33.2929C57.7998 33.3857 57.8735 33.4959 57.9238 33.6172C57.9741 33.7385 58 33.8685 58.0001 33.9998V56.9998Z" fill="#4770FF"/>
<path d="M54 35.0002H35.0003C33.8956 35.0002 33.0003 35.8955 33.0003 37.0001V52.0001C33.0003 53.1047 33.8956 54.0001 35.0003 54.0001H54.0002C55.1048 54.0001 56.0001 53.1048 56.0001 52.0001V37.0001C56.0001 35.8956 55.1048 35.0002 54.0002 35.0002H54ZM54 37.0001V44.5872L49.7058 40.2928C49.3153 39.9028 48.6827 39.9028 48.2918 40.2928L45.4999 43.0861L41.7068 39.2931C41.5193 39.1056 41.265 39.0003 40.9998 39.0003C40.7346 39.0003 40.4803 39.1056 40.2928 39.2931L35.0001 44.5862V37.0001H54ZM35.0001 52.0001V47.4138L41.0001 41.4138L48.2932 48.707C48.4818 48.8891 48.7343 48.9899 48.9965 48.9876C49.2587 48.9853 49.5094 48.88 49.6947 48.6946C50.0806 48.3092 50.0857 47.6852 49.7072 47.293L46.9139 44.5001L48.9998 42.4142L54.0001 47.4138V52.0001H35.0001ZM18.9999 15H22.0001C22.5521 15 22.9999 14.5524 22.9999 13.9998C22.9999 13.4477 22.5522 13.0001 22.0001 13.0001H18.9999C18.7348 13.0001 18.4806 13.1054 18.2931 13.2929C18.1056 13.4804 18.0003 13.7346 18.0002 13.9997C18.0002 14.131 18.026 14.2611 18.0762 14.3824C18.1264 14.5037 18.2 14.614 18.2928 14.7069C18.3857 14.7998 18.4959 14.8735 18.6172 14.9238C18.7385 14.9741 18.8686 15 18.9999 15ZM26 15H45C45.5519 15 46.0002 14.5524 46.0002 13.9998C46.0002 13.4477 45.552 13.0001 45 13.0001H26C25.7348 13.0001 25.4805 13.1054 25.2929 13.293C25.1054 13.4805 25.0001 13.7348 25.0001 14.0001C25.0001 14.2653 25.1054 14.5196 25.2929 14.7071C25.4805 14.8947 25.7348 15 26 15ZM22.0001 24.9999H18.9999C18.8686 24.9999 18.7386 25.0258 18.6173 25.0761C18.496 25.1263 18.3858 25.2 18.2929 25.2929C18.2001 25.3858 18.1265 25.496 18.0762 25.6174C18.026 25.7387 18.0002 25.8687 18.0002 26.0001C18.0002 26.5521 18.4479 26.9998 18.9998 26.9998H22.0001C22.2653 26.9998 22.5196 26.8944 22.7071 26.7069C22.8947 26.5194 23 26.265 23 25.9998C23 25.7346 22.8947 25.4803 22.7071 25.2927C22.5196 25.1052 22.2653 24.9999 22.0001 24.9999ZM46.0002 26.0001C46.0001 25.7348 45.8948 25.4804 45.7072 25.2928C45.5196 25.1053 45.2652 24.9999 45 24.9999H26C25.8674 24.9978 25.7357 25.0222 25.6126 25.0715C25.4895 25.1209 25.3775 25.1942 25.283 25.2873C25.1885 25.3803 25.1134 25.4912 25.0622 25.6136C25.011 25.7359 24.9846 25.8672 24.9846 25.9998C24.9846 26.1324 25.011 26.2637 25.0622 26.3861C25.1134 26.5084 25.1885 26.6193 25.283 26.7124C25.3775 26.8054 25.4895 26.8788 25.6126 26.9281C25.7357 26.9774 25.8674 27.0018 26 26.9998H45C45.5519 26.9998 46.0002 26.552 46.0002 26.0001ZM18.9999 19H30C30.5519 19 31.0002 18.5523 31.0002 18.0002C31.0002 17.735 30.8948 17.4806 30.7072 17.293C30.5197 17.1054 30.2653 17 30 16.9999H18.9999C18.8686 17 18.7386 17.0259 18.6173 17.0762C18.4959 17.1264 18.3857 17.2001 18.2929 17.293C18.2001 17.3859 18.1264 17.4962 18.0762 17.6175C18.026 17.7389 18.0002 17.8689 18.0002 18.0002C18.0002 18.5522 18.4479 18.9999 18.9998 18.9999L18.9999 19ZM45 16.9999H33.9999C33.8686 17 33.7386 17.0259 33.6173 17.0762C33.4959 17.1264 33.3857 17.2001 33.2929 17.293C33.2001 17.3859 33.1264 17.4962 33.0762 17.6175C33.026 17.7389 33.0002 17.8689 33.0002 18.0002C33.0002 18.5522 33.4479 18.9999 33.9998 18.9999H45C45.5519 18.9999 46.0002 18.5522 46.0002 18.0002C46.0002 17.735 45.8948 17.4806 45.7072 17.293C45.5197 17.1054 45.2653 17 45 16.9999ZM18.9999 22.9999H26C26.5521 22.9999 26.9997 22.5523 26.9997 22.0001C26.9998 21.7349 26.8945 21.4806 26.7071 21.293C26.5196 21.1054 26.2653 21 26.0001 20.9999H18.9999C18.8686 20.9999 18.7386 21.0258 18.6173 21.0761C18.496 21.1264 18.3858 21.2001 18.2929 21.2929C18.2001 21.3858 18.1265 21.4961 18.0762 21.6174C18.026 21.7387 18.0002 21.8688 18.0002 22.0001C18.0002 22.5522 18.448 22.9999 18.9999 22.9999ZM45 21H30C29.7347 21 29.4804 21.1054 29.2928 21.293C29.1052 21.4805 28.9998 21.7349 28.9998 22.0001C28.9998 22.5522 29.4479 22.9999 30 22.9999H45C45.5519 22.9999 46.0002 22.5523 46.0002 22.0001C46.0001 21.7349 45.8947 21.4805 45.7071 21.293C45.5196 21.1054 45.2652 21 45 21Z" fill="#4770FF"/>
</g>
<defs>
<clipPath id="clip0_1_5">
<rect width="60" height="60" fill="white"/>
</clipPath>
</defs>
</svg>
