<svg xmlns="http://www.w3.org/2000/svg" version="1.1" xmlns:xlink="http://www.w3.org/1999/xlink" width="60" height="60" x="0" y="0" viewBox="0 0 600 600" style="enable-background:new 0 0 512 512" xml:space="preserve" class=""><g><path d="M344.34 415.94c-8.48 0-15.37-6.9-15.37-15.37s6.9-15.37 15.37-15.37 15.37 6.9 15.37 15.37-6.89 15.37-15.37 15.37zm0-23.75c-4.62 0-8.37 3.76-8.37 8.37s3.76 8.37 8.37 8.37 8.37-3.76 8.37-8.37-3.75-8.37-8.37-8.37zM430.86 297.45c-.63 0-1.27-.17-1.83-.51a3.507 3.507 0 0 1-1.67-2.99v-32c0-1.22.63-2.35 1.67-2.99s2.34-.68 3.42-.13l31.2 16c1.17.6 1.9 1.8 1.9 3.11s-.73 2.51-1.9 3.11l-31.2 16c-.5.27-1.04.4-1.59.4zm3.5-29.77v20.55l20.03-10.27z" fill="#4770FF" opacity="1" data-original="#4770FF"></path><path d="M354.87 492.67h-99.9c-19.75 0-35.83-16.07-35.83-35.83V244.27c0-19.75 16.07-35.83 35.83-35.83h99.9c19.75 0 35.83 16.07 35.83 35.83v212.58c0 19.75-16.07 35.82-35.83 35.82zm-99.9-277.23c-15.9 0-28.83 12.93-28.83 28.83v212.58c0 15.89 12.93 28.83 28.83 28.83h99.9c15.89 0 28.83-12.93 28.83-28.83V244.27c0-15.89-12.93-28.83-28.83-28.83z" fill="#4770FF" opacity="1" data-original="#4770FF"></path><path d="M387.2 247.76H222.65c-1.93 0-3.5-1.57-3.5-3.5s1.57-3.5 3.5-3.5H387.2c1.93 0 3.5 1.57 3.5 3.5s-1.57 3.5-3.5 3.5zM387.2 453.43H222.65c-1.93 0-3.5-1.57-3.5-3.5s1.57-3.5 3.5-3.5H387.2c1.93 0 3.5 1.57 3.5 3.5s-1.57 3.5-3.5 3.5zM328.17 230.01h-46.5c-1.93 0-3.5-1.57-3.5-3.5s1.57-3.5 3.5-3.5h46.5c1.93 0 3.5 1.57 3.5 3.5s-1.56 3.5-3.5 3.5z" fill="#4770FF" opacity="1" data-original="#4770FF"></path><path d="M552.22 541.21H47.78c-9.4 0-17.04-7.65-17.04-17.04V75.84c0-9.4 7.65-17.04 17.04-17.04h504.44c9.4 0 17.04 7.65 17.04 17.04v448.32c0 9.4-7.64 17.05-17.04 17.05zM47.78 65.79c-5.54 0-10.04 4.51-10.04 10.04v448.32c0 5.54 4.51 10.04 10.04 10.04h504.44c5.54 0 10.04-4.51 10.04-10.04V75.84c0-5.54-4.51-10.04-10.04-10.04H47.78z" fill="#4770FF" opacity="1" data-original="#4770FF"></path><path d="M565.76 159.83H34.24c-1.93 0-3.5-1.57-3.5-3.5s1.57-3.5 3.5-3.5h531.53c1.93 0 3.5 1.57 3.5 3.5s-1.57 3.5-3.51 3.5zM216.32 98.31h-42.87c-1.93 0-3.5-1.57-3.5-3.5s1.57-3.5 3.5-3.5h42.87c1.93 0 3.5 1.57 3.5 3.5s-1.56 3.5-3.5 3.5zM216.32 126.54h-42.87c-1.93 0-3.5-1.57-3.5-3.5s1.57-3.5 3.5-3.5h42.87c1.93 0 3.5 1.57 3.5 3.5s-1.56 3.5-3.5 3.5z" fill="#4770FF" opacity="1" data-original="#4770FF"></path><path d="M182.21 134.86c-1.93 0-3.5-1.57-3.5-3.5V88.49c0-1.93 1.57-3.5 3.5-3.5s3.5 1.57 3.5 3.5v42.87c0 1.93-1.57 3.5-3.5 3.5zM207.62 134.86c-1.93 0-3.5-1.57-3.5-3.5V88.49c0-1.93 1.57-3.5 3.5-3.5s3.5 1.57 3.5 3.5v42.87c0 1.93-1.56 3.5-3.5 3.5zM134.88 193.72H62.02c-1.93 0-3.5-1.57-3.5-3.5s1.57-3.5 3.5-3.5h72.87c1.93 0 3.5 1.57 3.5 3.5s-1.57 3.5-3.51 3.5zM134.88 221.35H87.35c-1.93 0-3.5-1.57-3.5-3.5s1.57-3.5 3.5-3.5h47.53c1.93 0 3.5 1.57 3.5 3.5s-1.56 3.5-3.5 3.5zM134.88 245.32H87.35c-1.93 0-3.5-1.57-3.5-3.5s1.57-3.5 3.5-3.5h47.53c1.93 0 3.5 1.57 3.5 3.5s-1.56 3.5-3.5 3.5zM134.88 269.29H87.35c-1.93 0-3.5-1.57-3.5-3.5s1.57-3.5 3.5-3.5h47.53c1.93 0 3.5 1.57 3.5 3.5s-1.56 3.5-3.5 3.5zM134.88 316.27H62.02c-1.93 0-3.5-1.57-3.5-3.5s1.57-3.5 3.5-3.5h72.87c1.93 0 3.5 1.57 3.5 3.5s-1.57 3.5-3.51 3.5zM134.88 343.9H87.35c-1.93 0-3.5-1.57-3.5-3.5s1.57-3.5 3.5-3.5h47.53c1.93 0 3.5 1.57 3.5 3.5s-1.56 3.5-3.5 3.5zM134.88 367.87H87.35c-1.93 0-3.5-1.57-3.5-3.5s1.57-3.5 3.5-3.5h47.53c1.93 0 3.5 1.57 3.5 3.5s-1.56 3.5-3.5 3.5zM134.88 391.84H87.35c-1.93 0-3.5-1.57-3.5-3.5s1.57-3.5 3.5-3.5h47.53c1.93 0 3.5 1.57 3.5 3.5s-1.56 3.5-3.5 3.5zM93.1 137.55a3.49 3.49 0 0 1-3.26-2.23L71.06 87.07c-.5-1.29-.19-2.76.79-3.74s2.45-1.29 3.74-.79l48.25 18.78c1.38.54 2.28 1.89 2.23 3.38a3.499 3.499 0 0 1-2.44 3.22l-21.06 6.66-6.12 20.47a3.523 3.523 0 0 1-3.21 2.5h-.14zm-12.63-45.6 12.2 31.34 3.73-12.48a3.465 3.465 0 0 1 2.3-2.33l13.36-4.23zM283.61 121.95h-11.65c-1.93 0-3.5-1.57-3.5-3.5V88.49c0-1.93 1.57-3.5 3.5-3.5h29.95c1.93 0 3.5 1.57 3.5 3.5v11.65c0 1.93-1.57 3.5-3.5 3.5-8.16 0-14.8 6.64-14.8 14.81 0 1.93-1.57 3.5-3.5 3.5zm-8.15-7h4.93c1.49-9.23 8.8-16.53 18.02-18.03v-4.93h-22.95z" fill="#4770FF" opacity="1" data-original="#4770FF"></path><path d="M301.91 140.25c-12.02 0-21.8-9.78-21.8-21.8 0-12.03 9.78-21.81 21.8-21.81 12.03 0 21.81 9.78 21.81 21.81 0 12.02-9.79 21.8-21.81 21.8zm0-36.61c-8.16 0-14.8 6.64-14.8 14.81 0 8.16 6.64 14.8 14.8 14.8 8.17 0 14.81-6.64 14.81-14.8 0-8.17-6.65-14.81-14.81-14.81zM500.99 142.77c-1.34 0-2.6-.47-3.57-1.44l-5.85-5.85c-2.25-2.25-1.83-6.06.97-8.86l19.15-19.15c2.8-2.8 6.61-3.22 8.86-.97l5.84 5.84c2.25 2.25 1.83 6.06-.97 8.86l-19.15 19.15c-1.59 1.6-3.51 2.42-5.28 2.42zm-3.47-11.23 3.83 3.83 19.09-19.09-3.83-3.83z" fill="#4770FF" opacity="1" data-original="#4770FF"></path><path d="M501.67 125.94a3.5 3.5 0 0 1-2.16-.75c-.11-.09-11.82-9.03-22.36-4.19a3.497 3.497 0 0 1-4.84-2.27L462.29 81.5c-.33-1.21.02-2.5.91-3.38.88-.89 2.18-1.23 3.38-.91l37.23 10.02a3.497 3.497 0 0 1 2.27 4.84c-4.84 10.55 4.1 22.25 4.19 22.37 1.08 1.39.96 3.38-.28 4.63l-5.84 5.84c-.68.68-1.58 1.03-2.48 1.03zm-17.72-13.4c7.38 0 13.86 3.25 17.3 5.38l1.75-1.75c-2.67-4.33-7.13-13.47-4.65-23.15l-27.72-7.46 7.46 27.72c1.99-.52 3.95-.74 5.86-.74z" fill="#4770FF" opacity="1" data-original="#4770FF"></path><path d="M487.69 110.88c-2.21 0-4.29-.86-5.85-2.42-3.22-3.22-3.22-8.47 0-11.69 1.56-1.56 3.64-2.42 5.85-2.42s4.29.86 5.85 2.42c3.22 3.22 3.22 8.47 0 11.69a8.256 8.256 0 0 1-5.85 2.42zm0-9.53c-.33 0-.65.12-.9.37-.49.49-.49 1.3 0 1.79.32.32.7.37.9.37s.57-.05.9-.37c.49-.49.49-1.3 0-1.79-.26-.25-.58-.37-.9-.37z" fill="#4770FF" opacity="1" data-original="#4770FF"></path><path d="M484.32 102.74c-.9 0-1.79-.34-2.47-1.03L464.13 84c-1.37-1.37-1.37-3.58 0-4.95s3.58-1.37 4.95 0l17.71 17.71a3.495 3.495 0 0 1 0 4.95 3.46 3.46 0 0 1-2.47 1.03zM167.33 541.21c-1.93 0-3.5-1.57-3.5-3.5V156.33c0-1.93 1.57-3.5 3.5-3.5s3.5 1.57 3.5 3.5v381.38c0 1.93-1.57 3.5-3.5 3.5zM540.13 400.03h-95.36c-1.93 0-3.5-1.57-3.5-3.5V286.82c0-1.31.73-2.51 1.9-3.11l11.22-5.76-11.22-5.76c-1.17-.6-1.9-1.8-1.9-3.11v-24.82c0-1.93 1.57-3.5 3.5-3.5h95.36c1.93 0 3.5 1.57 3.5 3.5v152.27c0 1.93-1.57 3.5-3.5 3.5zm-91.86-7h88.36V247.76h-88.36v19.18l15.39 7.89c1.17.6 1.9 1.8 1.9 3.11s-.73 2.51-1.9 3.11l-15.39 7.89zM409.12 404.06h-52.9c-1.93 0-3.5-1.57-3.5-3.5s1.57-3.5 3.5-3.5h49.4V277.95c0-1.93 1.57-3.5 3.5-3.5h16.94c1.93 0 3.5 1.57 3.5 3.5s-1.57 3.5-3.5 3.5h-13.44v119.11c0 1.94-1.57 3.5-3.5 3.5zM377.38 113.43c-1.93 0-3.5-1.57-3.5-3.5v-20.4c0-1.93 1.57-3.5 3.5-3.5h20.39c1.93 0 3.5 1.57 3.5 3.5s-1.57 3.5-3.5 3.5h-16.89v16.89c0 1.94-1.57 3.51-3.5 3.51zM418.16 133.82h-20.39c-1.93 0-3.5-1.57-3.5-3.5s1.57-3.5 3.5-3.5h16.89v-16.89c0-1.93 1.57-3.5 3.5-3.5s3.5 1.57 3.5 3.5v20.39c0 1.93-1.56 3.5-3.5 3.5z" fill="#4770FF" opacity="1" data-original="#4770FF"></path><path d="M418.16 133.82c-.9 0-1.79-.34-2.47-1.03l-40.78-40.78c-1.37-1.37-1.37-3.58 0-4.95s3.58-1.37 4.95 0l40.78 40.78a3.495 3.495 0 0 1 0 4.95c-.68.69-1.58 1.03-2.48 1.03z" fill="#4770FF" opacity="1" data-original="#4770FF"></path></g></svg>