<svg width="60" height="60" viewBox="0 0 60 60" fill="none" xmlns="http://www.w3.org/2000/svg">
<g clip-path="url(#clip0_1_47)">
<path d="M26.9667 52.5833C26.637 52.2507 26.4514 51.8017 26.45 51.3333V48.8167C26.4393 48.4366 26.3074 48.0698 26.0735 47.77C25.8397 47.4702 25.5161 47.2529 25.15 47.15C23.8202 46.7735 22.5392 46.2421 21.3333 45.5667C20.9937 45.3772 20.6014 45.304 20.2163 45.3581C19.8311 45.4123 19.4742 45.5909 19.2 45.8667L17.4167 47.65C17.0824 47.9828 16.63 48.1697 16.1583 48.1697C15.6867 48.1697 15.2342 47.9828 14.9 47.65L12.4 45.0833C12.0672 44.7491 11.8803 44.2967 11.8803 43.825C11.8803 43.3534 12.0672 42.9009 12.4 42.5667L14.1833 40.7833C14.4553 40.5103 14.6316 40.1565 14.6857 39.7749C14.7397 39.3934 14.6688 39.0045 14.4833 38.6667C13.8072 37.4612 13.2758 36.1801 12.9 34.85C12.7971 34.4839 12.5799 34.1604 12.28 33.9265C11.9802 33.6926 11.6134 33.5607 11.2333 33.55H8.66667C8.19505 33.5457 7.74397 33.3564 7.41047 33.0229C7.07696 32.6894 6.88768 32.2383 6.88334 31.7667V28.2167C6.892 27.748 7.08318 27.3011 7.41623 26.9712C7.74927 26.6413 8.19789 26.4543 8.66667 26.45H11.1833C11.5634 26.4393 11.9302 26.3074 12.23 26.0735C12.5299 25.8397 12.7471 25.5161 12.85 25.15C13.2252 23.8197 13.7567 22.5386 14.4333 21.3333C14.6228 20.9937 14.696 20.6014 14.6419 20.2163C14.5877 19.8311 14.4091 19.4742 14.1333 19.2L12.4 17.4333C12.0712 17.097 11.8871 16.6454 11.8871 16.175C11.8871 15.7047 12.0712 15.253 12.4 14.9167L14.9167 12.4C15.2509 12.0672 15.7033 11.8804 16.175 11.8804C16.6467 11.8804 17.0991 12.0672 17.4333 12.4L19.2167 14.1833C19.4909 14.4591 19.8478 14.6377 20.2329 14.6919C20.6181 14.746 21.0103 14.6728 21.35 14.4833C22.5556 13.8074 23.8366 13.2759 25.1667 12.9C25.5327 12.7971 25.8563 12.5799 26.0902 12.28C26.3241 11.9802 26.456 11.6135 26.4667 11.2333V8.66668C26.4667 8.43249 26.5128 8.20059 26.6024 7.98423C26.692 7.76786 26.8234 7.57127 26.989 7.40567C27.1546 7.24007 27.3512 7.10871 27.5676 7.01909C27.7839 6.92947 28.0158 6.88334 28.25 6.88334H31.8V3.33334H28.2167C26.8022 3.33334 25.4456 3.89525 24.4454 4.89544C23.4452 5.89563 22.8833 7.25219 22.8833 8.66668V9.88334C22.1742 10.1357 21.4788 10.425 20.8 10.75L20 9.88334C19.0002 8.88594 17.6456 8.32581 16.2333 8.32581C14.8211 8.32581 13.4665 8.88594 12.4667 9.88334L9.88334 12.4C8.89797 13.4062 8.34611 14.7584 8.34611 16.1667C8.34611 17.575 8.89797 18.9272 9.88334 19.9333L10.75 20.8C10.4244 21.4786 10.1351 22.174 9.88334 22.8833H8.66667C7.25622 22.8964 5.90723 23.4625 4.90985 24.4599C3.91247 25.4572 3.34638 26.8062 3.33334 28.2167V31.7667C3.34638 33.1771 3.91247 34.5261 4.90985 35.5235C5.90723 36.5209 7.25622 37.087 8.66667 37.1H9.88334C10.1357 37.8091 10.425 38.5045 10.75 39.1833L9.88334 40C8.88593 40.9998 8.3258 42.3544 8.3258 43.7667C8.3258 45.1789 8.88593 46.5335 9.88334 47.5333L12.4 50.05C13.402 51.0434 14.7558 51.6007 16.1667 51.6007C17.5776 51.6007 18.9314 51.0434 19.9333 50.05L20.8 49.1833C21.4788 49.5084 22.1742 49.7977 22.8833 50.05V51.2667C22.8894 52.6795 23.4523 54.033 24.45 55.0333C24.9432 55.5304 25.53 55.9247 26.1766 56.1936C26.8231 56.4625 27.5165 56.6006 28.2167 56.6H31.7667V53.1167H28.2167C27.7463 53.1091 27.2976 52.9176 26.9667 52.5833Z" fill="#4770FF"/>
<path d="M51.3333 46C50.2825 46.0009 49.2557 46.3142 48.3833 46.9L38.1833 39.25C37.8753 39.0205 37.5008 38.8976 37.1167 38.9H30C28.5855 38.9 27.229 38.3381 26.2288 37.3379C25.2286 36.3377 24.6667 34.9812 24.6667 33.5667V26.45C24.6667 25.0355 25.2286 23.679 26.2288 22.6788C27.229 21.6786 28.5855 21.1167 30 21.1167H37.1167C37.5008 21.1191 37.8753 20.9962 38.1833 20.7667L48.3333 13.1C49.3171 13.7693 50.4965 14.0904 51.6838 14.0122C52.8711 13.934 53.9982 13.461 54.8857 12.6684C55.7732 11.8759 56.3702 10.8093 56.5817 9.63834C56.7932 8.4674 56.607 7.25936 56.0528 6.20641C55.4987 5.15346 54.6083 4.31607 53.5233 3.82746C52.4384 3.33885 51.2212 3.22709 50.0655 3.50994C48.9097 3.7928 47.8817 4.45404 47.145 5.38845C46.4083 6.32287 46.0053 7.47681 46 8.66668C46.0074 9.20499 46.0974 9.73897 46.2667 10.25L36.5167 17.5667H30C27.644 17.5667 25.3845 18.5026 23.7185 20.1685C22.0526 21.8345 21.1167 24.094 21.1167 26.45V33.5667C21.1167 35.9227 22.0526 38.1822 23.7185 39.8481C25.3845 41.5141 27.644 42.45 30 42.45H36.5167L46.2667 49.7667C46.0974 50.2777 46.0074 50.8117 46 51.35C46 52.4048 46.3128 53.436 46.8988 54.3131C47.4849 55.1901 48.3178 55.8737 49.2924 56.2774C50.2669 56.681 51.3393 56.7867 52.3738 56.5809C53.4084 56.3751 54.3587 55.8671 55.1046 55.1213C55.8505 54.3754 56.3584 53.4251 56.5642 52.3905C56.77 51.3559 56.6644 50.2836 56.2607 49.309C55.857 48.3345 55.1734 47.5015 54.2964 46.9155C53.4193 46.3295 52.3882 46.0167 51.3333 46.0167V46ZM51.3333 6.88335C51.686 6.88335 52.0308 6.98794 52.3241 7.18389C52.6174 7.37985 52.8459 7.65837 52.9809 7.98423C53.1159 8.31009 53.1512 8.66866 53.0824 9.01459C53.0136 9.36052 52.8437 9.67828 52.5943 9.92769C52.3449 10.1771 52.0272 10.3469 51.6812 10.4157C51.3353 10.4846 50.9767 10.4492 50.6509 10.3143C50.325 10.1793 50.0465 9.95072 49.8505 9.65745C49.6546 9.36418 49.55 9.01939 49.55 8.66668C49.55 8.19371 49.7379 7.74011 50.0723 7.40567C50.4068 7.07123 50.8604 6.88335 51.3333 6.88335ZM51.3333 53.1C50.9806 53.1 50.6358 52.9954 50.3426 52.7995C50.0493 52.6035 49.8207 52.325 49.6858 51.9991C49.5508 51.6733 49.5155 51.3147 49.5843 50.9688C49.6531 50.6228 49.8229 50.3051 50.0723 50.0557C50.3217 49.8063 50.6395 49.6364 50.9854 49.5676C51.3314 49.4988 51.6899 49.5341 52.0158 49.6691C52.3416 49.8041 52.6202 50.0326 52.8161 50.3259C53.0121 50.6192 53.1167 50.964 53.1167 51.3167C53.1189 51.5523 53.0744 51.786 52.9857 52.0043C52.8971 52.2225 52.7661 52.4211 52.6003 52.5885C52.4345 52.7558 52.2371 52.8887 52.0197 52.9794C51.8022 53.07 51.5689 53.1167 51.3333 53.1167V53.1Z" fill="#4770FF"/>
<path d="M51.3333 24.6667C50.2354 24.6697 49.1652 25.0125 48.27 25.6482C47.3747 26.2838 46.6982 27.1811 46.3333 28.2167H30V31.7667H46.3333C46.6629 32.6827 47.2378 33.4907 47.9951 34.1025C48.7525 34.7143 49.6633 35.1064 50.6282 35.236C51.5931 35.3656 52.5751 35.2278 53.467 34.8376C54.359 34.4474 55.1267 33.8197 55.6863 33.0231C56.246 32.2265 56.5762 31.2915 56.6409 30.32C56.7056 29.3486 56.5024 28.3781 56.0533 27.5142C55.6042 26.6504 54.9266 25.9265 54.0943 25.4214C53.2619 24.9163 52.3069 24.6495 51.3333 24.65V24.6667ZM51.3333 31.7833C50.9806 31.7833 50.6358 31.6787 50.3426 31.4828C50.0493 31.2868 49.8207 31.0083 49.6857 30.6824C49.5508 30.3566 49.5155 29.998 49.5843 29.6521C49.6531 29.3062 49.8229 28.9884 50.0723 28.739C50.3217 28.4896 50.6395 28.3197 50.9854 28.2509C51.3314 28.1821 51.6899 28.2174 52.0158 28.3524C52.3416 28.4874 52.6202 28.716 52.8161 29.0092C53.0121 29.3025 53.1167 29.6473 53.1167 30C53.1167 30.473 52.9288 30.9266 52.5943 31.261C52.2599 31.5954 51.8063 31.7833 51.3333 31.7833Z" fill="#4770FF"/>
</g>
<defs>
<clipPath id="clip0_1_47">
<rect width="60" height="60" fill="white"/>
</clipPath>
</defs>
</svg>
