<svg xmlns="http://www.w3.org/2000/svg" version="1.1" xmlns:xlink="http://www.w3.org/1999/xlink" width="" height="" x="0" y="0" viewBox="0 0 30 30" style="enable-background:new 0 0 512 512" xml:space="preserve" class=""><g><path d="M2.177 7.337c-2.656 3.818-2.325 8.784-.297 12.841.048.096.099.191.149.287.031.061.061.123.094.184l.06.105c.034.064.07.125.106.189.063.111.127.221.193.332l.11.182c.073.117.147.234.226.352.031.049.063.1.095.148.106.156.214.314.325.469.004.004.006.01.01.012l.055.074a11.968 11.968 0 0 0 .408.538c.09.113.182.225.275.338.034.041.068.084.104.125.125.146.253.293.383.436l.008.008c.006.008.01.01.015.018.126.139.257.273.388.408.041.043.082.084.125.125.102.104.205.205.31.305l.127.121c.14.131.28.26.425.387.002.002.004.004.007.004.024.023.05.043.073.064.127.109.256.219.387.326l.16.127a29.968 29.968 0 0 0 .493.383c.119.088.239.174.36.258.045.033.088.064.132.094.013.008.024.018.036.025.115.08.233.156.352.232l.15.102c.182.113.364.227.549.336l.152.086c.137.078.273.154.412.23.074.041.152.078.228.117.099.051.195.104.295.152.022.012.046.023.068.033l.12.059c.154.074.311.146.468.217.033.016.065.029.099.043.18.08.361.156.545.227.044.02.088.035.133.053.17.066.342.131.514.191.021.008.043.014.064.021.189.066.381.129.574.188.046.014.092.029.139.041.195.061.389.131.592.168 12.846 2.342 16.575-7.719 16.575-7.719-3.132 4.082-8.695 5.16-13.966 3.961-.199-.045-.393-.107-.588-.166a13.834 13.834 0 0 1-.712-.229c-.025-.01-.052-.018-.078-.027-.168-.061-.334-.121-.5-.186-.046-.02-.093-.037-.139-.055a14.981 14.981 0 0 1-.54-.225l-.107-.047a31.637 31.637 0 0 1-.587-.276 39.31 39.31 0 0 1-.352-.18c-.078-.041-.157-.08-.234-.123a10.84 10.84 0 0 1-.422-.236 6.926 6.926 0 0 1-.143-.078 19.227 19.227 0 0 1-1.088-.696c-.043-.029-.084-.061-.126-.088a24.818 24.818 0 0 1-.369-.268 4.122 4.122 0 0 1-.163-.125c-.112-.084-.224-.17-.334-.26l-.148-.119a15.35 15.35 0 0 1-.461-.389 16.374 16.374 0 0 1-.561-.512c-.106-.102-.211-.203-.314-.309l-.123-.121c-.13-.135-.259-.27-.385-.408l-.019-.02a16.327 16.327 0 0 1-.39-.445l-.103-.121a12.18 12.18 0 0 1-.281-.348 7.075 7.075 0 0 1-.103-.127 20.25 20.25 0 0 1-.324-.432C2.962 14.733 1.91 9.229 4.25 4.708" fill="#0773b4" opacity="1" data-original="#000000" class=""></path><path d="M10.422 4.12c-1.921 2.766-1.816 6.465-.318 9.389.251.49.533.965.85 1.418.287.412.607.904.988 1.233.139.152.283.303.432.447a13.106 13.106 0 0 0 .553.521c.007.006.012.012.019.016l.004.004c.166.146.339.287.514.426.039.029.078.061.117.092.176.135.354.266.537.393l.016.012c.082.057.164.107.246.162.039.025.076.053.116.076.131.084.264.166.398.244l.057.033c.116.066.234.133.353.197.041.023.084.043.125.064l.247.129c.013.006.024.012.037.016.169.084.34.164.515.24l.113.047a10.32 10.32 0 0 0 .602.236 9.384 9.384 0 0 0 .563.192c.185.057.367.131.56.162 9.918 1.643 12.207-5.991 12.207-5.991-2.064 2.97-6.061 4.39-10.325 3.282a15.141 15.141 0 0 1-.563-.162l-.168-.055a8.72 8.72 0 0 1-.394-.137l-.177-.064a11.058 11.058 0 0 1-.424-.172l-.113-.047a11.134 11.134 0 0 1-.518-.242c-.088-.041-.174-.086-.26-.131l-.149-.078c-.11-.059-.22-.121-.328-.183-.026-.016-.053-.029-.079-.044-.134-.078-.266-.16-.396-.242-.041-.027-.08-.055-.121-.08-.086-.057-.172-.113-.257-.172a13.86 13.86 0 0 1-.536-.391l-.121-.096c-1.867-1.475-3.347-3.488-4.051-5.773-.736-2.369-.578-5.027.699-7.186" fill="#0773b4" opacity="1" data-original="#000000" class=""></path><path d="M17.355 1.718c-1.132 1.666-1.243 3.736-.457 5.576.828 1.955 2.526 3.486 4.508 4.213.082.031.164.059.246.086l.109.035c.116.035.232.078.354.102 5.476 1.059 6.96-2.811 7.356-3.381-1.303 1.875-3.487 2.324-6.171 1.672a6.747 6.747 0 0 1-.648-.199 7.967 7.967 0 0 1-2.123-1.144c-2.4-1.822-3.893-5.297-2.326-8.127" fill="#0773b4" opacity="1" data-original="#000000" class=""></path></g></svg>