<svg xmlns="http://www.w3.org/2000/svg" version="1.1" xmlns:xlink="http://www.w3.org/1999/xlink" width="60" height="60" x="0" y="0" viewBox="0 0 64 64" style="enable-background:new 0 0 512 512" xml:space="preserve" class=""><g><path d="M57 5H7c-2.76 0-5 2.24-5 5v34c0 2.76 2.24 5 5 5h16.21l-2.89 5.65c-.47.93-.43 2.01.11 2.9.56.91 1.53 1.45 2.61 1.45h17.91c1.08 0 2.05-.54 2.61-1.45.54-.89.59-1.97.11-2.9L40.78 49h16.21c2.76 0 5-2.24 5-5V10c0-2.76-2.24-5-5-5zm3 5v31H37V7h20c1.65 0 3 1.35 3 3zM7 7h28v34H4V10c0-1.65 1.35-3 3-3zm34.89 48.56c.22.44.05.81-.04.95-.09.15-.36.49-.9.49H23.04c-.54 0-.81-.35-.9-.49a.98.98 0 0 1-.04-.95L25.45 49h13.08l3.35 6.56zM60 44c0 1.65-1.35 3-3 3H7c-1.65 0-3-1.35-3-3v-1h56z" fill="#4770FF" opacity="1" data-original="#4770FF" class=""></path><path d="M9 24h22c1.1 0 2-.9 2-2V12c0-1.1-.9-2-2-2H9c-1.1 0-2 .9-2 2v10c0 1.1.9 2 2 2zm0-12h22v10H9zM9 38h8c1.1 0 2-.9 2-2v-8c0-1.1-.9-2-2-2H9c-1.1 0-2 .9-2 2v8c0 1.1.9 2 2 2zm0-10h8v8H9zM31 26h-8c-1.1 0-2 .9-2 2v8c0 1.1.9 2 2 2h8c1.1 0 2-.9 2-2v-8c0-1.1-.9-2-2-2zm-8 10v-8h8v8h-8zM56 36H41c-.55 0-1 .45-1 1s.45 1 1 1h15c.55 0 1-.45 1-1s-.45-1-1-1zM56 31H41c-.55 0-1 .45-1 1s.45 1 1 1h15c.55 0 1-.45 1-1s-.45-1-1-1zM56 26H41c-.55 0-1 .45-1 1s.45 1 1 1h15c.55 0 1-.45 1-1s-.45-1-1-1zM52.4 20.8c.18.13.39.2.6.2.3 0 .6-.14.8-.4l3-4a.99.99 0 0 0 0-1.2l-3-4c-.33-.44-.96-.53-1.4-.2s-.53.96-.2 1.4l2.55 3.4-2.55 3.4c-.33.44-.24 1.07.2 1.4zM39.2 16.6l3 4c.2.26.5.4.8.4.21 0 .42-.07.6-.2.44-.33.53-.96.2-1.4L41.25 16l2.55-3.4c.33-.44.24-1.07-.2-1.4s-1.07-.24-1.4.2l-3 4a.99.99 0 0 0 0 1.2zM46.76 20.97a.992.992 0 0 0 1.21-.73l2-8a.995.995 0 0 0-.73-1.21.987.987 0 0 0-1.21.73l-2 8c-.13.54.19 1.08.73 1.21z" fill="#4770FF" opacity="1" data-original="#4770FF" class=""></path></g></svg>