<svg xmlns="http://www.w3.org/2000/svg" version="1.1" xmlns:xlink="http://www.w3.org/1999/xlink" width="" height="" x="0" y="0" viewBox="0 0 512 512" style="enable-background:new 0 0 512 512" xml:space="preserve" class=""><g><path fill="#cc6699" fill-rule="evenodd" d="M256.001 0C397.385 0 512 114.616 512 256c0 141.385-114.615 256-255.999 256C114.616 512 0 397.385 0 256 0 114.616 114.616 0 256.001 0z" clip-rule="evenodd" opacity="1" data-original="#cc6699" class=""></path><path fill="#ffffff" d="M416.581 109.572C404.988 64.105 329.6 49.158 258.249 74.507c-42.462 15.086-88.431 38.762-121.483 69.678-39.299 36.758-45.566 68.752-42.983 82.12 9.112 47.171 73.746 78.004 100.315 100.88v.139c-7.835 3.856-65.177 32.876-78.597 62.545-14.16 31.299 2.254 53.759 13.121 56.782 33.669 9.368 68.219-7.482 86.787-35.176 17.917-26.727 16.426-61.241 8.639-78.408 10.741-2.834 23.264-4.104 39.178-2.245 44.907 5.245 53.718 33.285 52.033 45.019-1.684 11.736-11.103 18.188-14.253 20.135-3.149 1.949-4.111 2.624-3.846 4.072.382 2.105 1.84 2.027 4.525 1.572 3.697-.623 23.582-9.546 24.431-31.207 1.083-27.503-25.273-58.266-71.939-57.463-19.219.332-31.304 2.16-40.034 5.408a93.264 93.264 0 0 0-1.981-2.191c-28.85-30.781-82.184-52.554-79.922-93.934.823-15.044 6.052-54.657 102.48-102.707 78.992-39.361 142.229-28.53 153.157-4.525 15.611 34.295-33.797 98.037-115.829 107.232-31.254 3.504-47.711-8.61-51.805-13.121-4.31-4.75-4.952-4.964-6.561-4.073-2.621 1.452-.96 5.645 0 8.144 2.45 6.374 12.5 17.678 29.636 23.301 15.074 4.947 51.769 7.664 96.148-9.501 49.702-19.225 88.515-72.707 77.115-117.411zM205.125 341.275c3.724 13.777 3.316 26.625-.532 38.26-3.06 9.254-8.322 17.645-14.89 24.811-14.874 16.227-35.656 22.362-44.567 17.193-9.623-5.578-4.803-28.457 12.443-46.686 18.552-19.612 45.245-32.222 45.245-32.222l-.04-.08c.768-.414 1.549-.84 2.341-1.276z" opacity="1" data-original="#ffffff" class=""></path></g></svg>