<svg width="60" height="60" viewBox="0 0 60 60" fill="none" xmlns="http://www.w3.org/2000/svg">
<g clip-path="url(#clip0_1_38)">
<path fill-rule="evenodd" clip-rule="evenodd" d="M19.0057 9.95732C19.0057 10.7656 18.6846 11.5408 18.1131 12.1123C17.5415 12.6838 16.7664 13.0049 15.9581 13.0049C15.1498 13.0049 14.3746 12.6838 13.8031 12.1123C13.2316 11.5408 12.9105 10.7656 12.9105 9.95732C12.9105 9.14904 13.2316 8.37387 13.8031 7.80233C14.3746 7.23079 15.1498 6.9097 15.9581 6.9097C16.7664 6.9097 17.5415 7.23079 18.1131 7.80233C18.6846 8.37387 19.0057 9.14904 19.0057 9.95732ZM16.211 15.2861L16.3208 15.28L18.96 28.4762C18.3546 28.8282 17.8383 29.3147 17.4508 29.898C17.0633 30.4813 16.8151 31.1459 16.7253 31.8404C16.6354 32.5349 16.7064 33.2407 16.9327 33.9034C17.159 34.5661 17.5346 35.168 18.0305 35.6625L14.0518 44.9455C13.7936 44.8661 13.5297 44.8065 13.2625 44.7672L16.211 15.2861ZM20.1775 13.2213C20.5509 12.7398 20.8434 12.1912 21.0354 11.5985L40.9516 15.8651C41.043 16.2903 41.1741 16.6987 41.3417 17.0903L31.1215 24.1653L20.1775 13.2213ZM21.2518 9.30665C21.1511 8.49015 20.8629 7.708 20.4097 7.02139C19.9565 6.33478 19.3506 5.76232 18.6395 5.34878C17.9283 4.93524 17.131 4.69184 16.3101 4.63761C15.4892 4.58338 14.6669 4.71979 13.9075 5.03617C13.1481 5.35255 12.4722 5.84033 11.9326 6.46136C11.393 7.08238 11.0044 7.81981 10.7972 8.61598C10.59 9.41214 10.5697 10.2454 10.7381 11.0507C10.9064 11.856 11.2588 12.6114 11.7676 13.2579L4.09066 26.0533C3.59017 25.9902 3.08213 26.0271 2.59601 26.1619C2.10989 26.2966 1.65538 26.5266 1.25886 26.8385C0.862344 27.1503 0.531709 27.5378 0.286146 27.9785C0.0405838 28.4191 -0.115015 28.9041 -0.17162 29.4054C-0.228224 29.9067 -0.184708 30.4142 -0.0435959 30.8985C0.0975163 31.3828 0.333414 31.8343 0.650406 32.2267C0.967399 32.6191 1.35917 32.9447 1.80299 33.1845C2.24681 33.4243 2.73384 33.5735 3.2358 33.6236L8.41675 46.5775C7.89022 47.1948 7.51145 47.924 7.30928 48.7097C7.10711 49.4955 7.08686 50.317 7.25008 51.1117C7.4133 51.9064 7.75568 52.6534 8.25117 53.2959C8.74665 53.9383 9.38218 54.4593 10.1094 54.819C10.8366 55.1788 11.6362 55.3679 12.4476 55.372C13.2589 55.3761 14.0604 55.195 14.7912 54.8426C15.522 54.4901 16.1627 53.9756 16.6646 53.3382C17.1665 52.7008 17.5164 51.9572 17.6876 51.1642L38.3352 49.6907C38.7827 50.5544 39.5437 51.2142 40.4621 51.5348C41.3805 51.8554 42.3867 51.8126 43.2745 51.415C44.1623 51.0175 44.8645 50.2954 45.2369 49.3968C45.6094 48.4982 45.624 47.4911 45.2777 46.5821L53.6754 38.1859C54.3199 38.4965 55.0283 38.6516 55.7437 38.6386C56.459 38.6256 57.1613 38.445 57.7942 38.1112C58.427 37.7775 58.9727 37.2998 59.3873 36.7168C59.802 36.1338 60.0741 35.4616 60.1817 34.7543C60.2893 34.0469 60.2295 33.3242 60.007 32.6443C59.7845 31.9643 59.4055 31.346 58.9006 30.8391C58.3957 30.3322 57.7789 29.9509 57.0998 29.7258C56.4207 29.5006 55.6982 29.438 54.9905 29.5428L51.0514 20.3527C52.0645 19.7736 52.913 18.9455 53.5167 17.9467C54.1203 16.948 54.4591 15.8118 54.5009 14.6456C54.5428 13.4794 54.2863 12.3218 53.7558 11.2824C53.2253 10.243 52.4383 9.35619 51.4693 8.7059C50.5003 8.05562 49.3814 7.66339 48.2185 7.56633C47.0556 7.46928 45.8871 7.67061 44.8238 8.15128C43.7604 8.63194 42.8373 9.37603 42.1418 10.3131C41.4464 11.2502 41.0016 12.3493 40.8495 13.5063L21.2518 9.30665ZM13.5566 14.7207L6.16761 27.0331C6.60557 27.4375 6.94249 27.939 7.15126 28.4973C7.36002 29.0556 7.4348 29.6552 7.36958 30.2477C7.30435 30.8402 7.10095 31.4091 6.77573 31.9086C6.45051 32.4082 6.01257 32.8244 5.49714 33.1238L10.3124 45.1649C10.5181 45.0735 10.7314 44.9943 10.9493 44.9303L13.9512 14.9021C13.8167 14.8471 13.6861 14.7866 13.5566 14.7207ZM52.2217 14.3977C52.2217 15.6101 51.7401 16.7729 50.8828 17.6302C50.0255 18.4875 48.8627 18.9691 47.6503 18.9691C46.4379 18.9691 45.2751 18.4875 44.4178 17.6302C43.5605 16.7729 43.0788 15.6101 43.0788 14.3977C43.0788 13.1853 43.5605 12.0225 44.4178 11.1652C45.2751 10.3079 46.4379 9.82627 47.6503 9.82627C48.8627 9.82627 50.0255 10.3079 50.8828 11.1652C51.7401 12.0225 52.2217 13.1853 52.2217 14.3977ZM48.3558 21.2183L43.9581 44.6712L51.9246 36.7063C51.2403 35.7395 50.958 34.5449 51.1371 33.3741C51.3161 32.2033 51.9426 31.1477 52.8846 30.4297L48.9029 21.1406C48.723 21.1741 48.5402 21.2 48.3543 21.2183H48.3558ZM17.68 48.8754C17.5495 48.2922 17.3212 47.7353 17.0049 47.2282L28.2735 38.7771L38.3688 46.1188C38.1509 46.5181 38.003 46.96 37.9406 47.4293L17.68 48.8754ZM16.6789 44.6148L20.016 36.8282C20.7493 37.0344 21.5224 37.0544 22.2654 36.8862C23.0083 36.718 23.6975 36.3671 24.2705 35.8651L26.3398 37.3707L16.6789 44.6148ZM28.2522 35.9352L25.5611 33.9771C25.9314 32.9526 25.9228 31.8294 25.5368 30.8107L30.8549 27.1307L33.6282 29.904C33.1179 30.6334 32.8805 31.5192 32.9577 32.4061L28.2522 35.9352ZM36.755 28.2705C36.2979 28.2705 35.859 28.3512 35.4537 28.499L32.7642 25.808L42.5775 19.0118C42.867 19.3287 43.1825 19.6183 43.5238 19.8758L37.8659 28.4366C37.5053 28.3269 37.1304 28.2714 36.7535 28.272L36.755 28.2705ZM40.5646 32.08C40.5646 31.1931 40.2598 30.3779 39.7508 29.7303L45.5657 20.9318C45.7272 20.9836 45.8918 21.0293 46.0579 21.0689L41.7562 44.0129L38.9021 35.2267C39.4142 34.8774 39.8332 34.4082 40.1227 33.8601C40.4122 33.312 40.5633 32.7014 40.563 32.0815L40.5646 32.08ZM33.875 34.576C34.5653 35.3714 35.5817 35.8788 36.7139 35.8895L39.3501 44.0068L30.1859 37.3417L33.875 34.576ZM29.2122 25.488L24.2202 28.944C23.3702 28.219 22.2834 27.8317 21.1665 27.856L18.5638 14.8411L29.2122 25.488ZM41.7166 49.4606C42.1207 49.4606 42.5083 49.3 42.7941 49.0142C43.0798 48.7285 43.2404 48.3409 43.2404 47.9367C43.2404 47.5326 43.0798 47.145 42.7941 46.8592C42.5083 46.5735 42.1207 46.4129 41.7166 46.4129C41.3124 46.4129 40.9248 46.5735 40.6391 46.8592C40.3533 47.145 40.1928 47.5326 40.1928 47.9367C40.1928 48.3409 40.3533 48.7285 40.6391 49.0142C40.9248 49.3 41.3124 49.4606 41.7166 49.4606ZM21.2594 34.7116C21.5596 34.7116 21.8568 34.6525 22.1341 34.5376C22.4114 34.4227 22.6634 34.2544 22.8757 34.0421C23.0879 33.8299 23.2563 33.5779 23.3711 33.3006C23.486 33.0233 23.5451 32.7261 23.5451 32.4259C23.5451 32.1257 23.486 31.8285 23.3711 31.5512C23.2563 31.2739 23.0879 31.0219 22.8757 30.8096C22.6634 30.5974 22.4114 30.429 22.1341 30.3142C21.8568 30.1993 21.5596 30.1402 21.2594 30.1402C20.6532 30.1402 20.0718 30.381 19.6432 30.8096C19.2145 31.2383 18.9737 31.8197 18.9737 32.4259C18.9737 33.0321 19.2145 33.6135 19.6432 34.0421C20.0718 34.4708 20.6532 34.7116 21.2594 34.7116ZM5.10552 29.8324C5.10552 30.2365 4.94497 30.6241 4.6592 30.9099C4.37343 31.1956 3.98585 31.3562 3.58171 31.3562C3.17757 31.3562 2.78998 31.1956 2.50421 30.9099C2.21844 30.6241 2.0579 30.2365 2.0579 29.8324C2.0579 29.4282 2.21844 29.0406 2.50421 28.7549C2.78998 28.4691 3.17757 28.3086 3.58171 28.3086C3.98585 28.3086 4.37343 28.4691 4.6592 28.7549C4.94497 29.0406 5.10552 29.4282 5.10552 29.8324ZM36.755 33.6068C37.1592 33.6068 37.5468 33.4463 37.8325 33.1605C38.1183 32.8748 38.2789 32.4872 38.2789 32.083C38.2789 31.6789 38.1183 31.2913 37.8325 31.0055C37.5468 30.7198 37.1592 30.5592 36.755 30.5592C36.3509 30.5592 35.9633 30.7198 35.6775 31.0055C35.3918 31.2913 35.2312 31.6789 35.2312 32.083C35.2312 32.4872 35.3918 32.8748 35.6775 33.1605C35.9633 33.4463 36.3509 33.6068 36.755 33.6068ZM54.0411 35.6838C53.8227 35.473 53.6485 35.2209 53.5286 34.9421C53.4086 34.6633 53.3454 34.3634 53.3427 34.0599C53.3399 33.7564 53.3976 33.4554 53.5124 33.1744C53.6272 32.8935 53.7968 32.6382 54.0113 32.4235C54.2258 32.2088 54.4809 32.0389 54.7618 31.9239C55.0426 31.8088 55.3436 31.7508 55.6471 31.7533C55.9506 31.7558 56.2505 31.8187 56.5294 31.9384C56.8084 32.0581 57.0607 32.2321 57.2716 32.4503C57.6882 32.8812 57.9188 33.4584 57.9139 34.0577C57.909 34.6571 57.6689 35.2305 57.2453 35.6545C56.8217 36.0784 56.2485 36.3191 55.6492 36.3246C55.0499 36.3301 54.4724 36.1 54.0411 35.6838ZM12.4747 53.0887C13.2829 53.0887 14.0581 52.7677 14.6297 52.1961C15.2012 51.6246 15.5223 50.8494 15.5223 50.0411C15.5223 49.2328 15.2012 48.4577 14.6297 47.8861C14.0581 47.3146 13.2829 46.9935 12.4747 46.9935C11.6664 46.9935 10.8912 47.3146 10.3197 47.8861C9.74813 48.4577 9.42704 49.2328 9.42704 50.0411C9.42704 50.8494 9.74813 51.6246 10.3197 52.1961C10.8912 52.7677 11.6664 53.0887 12.4747 53.0887Z" fill="#4770FF"/>
</g>
<defs>
<clipPath id="clip0_1_38">
<rect width="60" height="60" fill="white"/>
</clipPath>
</defs>
</svg>
