<svg width="60" height="60" viewBox="0 0 60 60" fill="none" xmlns="http://www.w3.org/2000/svg">
<g clip-path="url(#clip0_4_73)">
<path d="M51.3606 38.8774L47.8407 38.0364V36.8C49.7849 35.6514 51.0926 33.5351 51.0926 31.118V26.4513C51.0926 22.8144 48.1337 19.8556 44.4968 19.8556H43.7674C41.8256 19.8556 40.0776 20.6994 38.8696 22.0392C37.6996 18.2524 34.1662 15.493 30.0002 15.493C25.8341 15.493 22.3007 18.2522 21.1308 22.0392C19.9227 20.6994 18.1747 19.8556 16.2329 19.8556H15.5035C11.8666 19.8556 8.90757 22.8144 8.90757 26.4513V31.118C8.90757 33.535 10.2153 35.6514 12.1595 36.8V38.0364L8.63958 38.8774C5.32005 39.6705 3.00164 42.6079 3.00164 46.0208V49.1956C3.00164 49.778 3.47393 50.2502 4.05622 50.2502H12.5741C12.5202 50.6706 12.4931 51.0941 12.4932 51.5179V54.8906H6.16549C5.58309 54.8906 5.11091 55.3629 5.11091 55.9452C5.11091 56.5276 5.5832 56.9998 6.16549 56.9998H53.8346C54.417 56.9998 54.8892 56.5275 54.8892 55.9452C54.8892 55.3628 54.4169 54.8906 53.8346 54.8906H47.5069V51.523C47.5069 51.0924 47.4792 50.6675 47.4254 50.2503H55.9439C56.5263 50.2503 56.9985 49.778 56.9985 49.1957V46.0209C56.9986 42.6079 54.6801 39.6704 51.3606 38.8774ZM39.281 26.4513C39.2809 23.9774 41.2935 21.9648 43.7675 21.9648H44.4969C46.9709 21.9648 48.9836 23.9774 48.9836 26.4513V26.7217C47.4639 26.7044 45.981 26.2526 44.7098 25.4197C44.5382 25.3073 44.3375 25.2474 44.1323 25.2474C43.9272 25.2474 43.7265 25.3073 43.5549 25.4197C42.2838 26.2527 40.8008 26.7045 39.2811 26.7217V26.4513H39.281ZM39.2809 30.2578V28.8312C40.9884 28.8147 42.6508 28.3701 44.1321 27.5357C45.6134 28.3702 47.2758 28.8147 48.9834 28.8312V31.1181C48.9834 33.5921 46.9707 35.6047 44.4967 35.6047H43.7673C41.2933 35.6047 39.2807 33.5921 39.2807 31.1181V30.2578H39.2809ZM41.3036 42.3968C40.8701 42.2256 40.4252 42.0852 39.972 41.9764L36.6202 41.1756C36.87 41.0727 37.1274 40.9893 37.39 40.9261L40.7215 40.1277L41.3036 42.3968ZM40.4305 36.8041V38.0286L36.8985 38.875C36.1397 39.0566 35.4149 39.3582 34.7513 39.7684V38.2271C36.2005 37.3593 37.3875 36.115 38.1862 34.6266C38.7504 35.5207 39.5198 36.2672 40.4305 36.8041ZM37.1717 30.2578C37.1717 34.2121 33.9546 37.4292 30.0003 37.4292C26.0459 37.4292 22.8288 34.2121 22.8288 30.2578V27.1684H23.9879C26.9487 27.1684 29.7696 26.2236 32.0887 24.5078L32.3304 24.8691C32.803 25.5771 33.4432 26.1575 34.1941 26.5586C34.945 26.9597 35.7834 27.1692 36.6347 27.1684H37.1718L37.1717 30.2578ZM22.8286 24.7736C22.8286 20.8194 26.0457 17.6023 30.0001 17.6023C33.9544 17.6023 37.1715 20.8194 37.1715 24.7737V25.0591H36.6344C36.1298 25.0596 35.6329 24.9355 35.1879 24.6977C34.7428 24.46 34.3634 24.116 34.0833 23.6963L33.6933 23.1133C34.0117 22.7907 34.314 22.4527 34.5992 22.1004C34.9654 21.6474 34.895 20.9834 34.4419 20.6173C33.9892 20.2511 33.325 20.3214 32.9588 20.7746C30.7584 23.4974 27.4886 25.059 23.9878 25.059H22.8286V24.7736ZM21.814 34.6266C22.6145 36.1184 23.805 37.3649 25.2586 38.2329V39.7743C24.5923 39.3611 23.8641 39.0575 23.1017 38.8751L19.5697 38.0287V36.8042C20.4804 36.2672 21.2497 35.5206 21.814 34.6266ZM23.3684 41.1709L20.0212 41.973C19.5709 42.0814 19.1287 42.2212 18.6979 42.3912L19.2787 40.128L22.6101 40.9264C22.8701 40.9886 23.1233 41.0708 23.3684 41.1709ZM11.0169 26.4513C11.0168 23.9774 13.0295 21.9648 15.5035 21.9648H16.2329C18.7069 21.9648 20.7195 23.9774 20.7195 26.4513V26.7217C19.1999 26.7044 17.7169 26.2526 16.4457 25.4197C16.2741 25.3073 16.0734 25.2474 15.8683 25.2474C15.6632 25.2474 15.4625 25.3073 15.2909 25.4197C14.0197 26.2527 12.5367 26.7045 11.0171 26.7217L11.0169 26.4513ZM11.0168 31.1181V28.8312C12.7244 28.8147 14.3868 28.3701 15.8681 27.5357C17.3494 28.3702 19.0118 28.8147 20.7193 28.8312V31.1181C20.7193 33.5921 18.7067 35.6047 16.2327 35.6047H15.5033C13.0295 35.6047 11.0168 33.5921 11.0168 31.1181ZM13.0882 48.1414H5.11091V46.0209C5.11091 43.5882 6.7635 41.4942 9.12959 40.9291L12.4503 40.1358L14.0191 46.251C13.6415 46.8457 13.3294 47.4795 13.0882 48.1414ZM14.2689 37.5963C14.6758 37.6742 15.0891 37.7135 15.5034 37.7139H16.2328C16.6525 37.7139 17.0624 37.6729 17.4605 37.5975V38.7271L16.1389 43.8777C15.9843 44.0014 15.8336 44.1298 15.6868 44.2626L14.2689 38.7356V37.5963ZM14.6026 54.8907V51.5183C14.6026 48.9607 15.8445 46.6576 17.8232 45.2467L27.4672 54.8907H14.6026ZM19.794 44.2345C20.0301 44.1529 20.27 44.0828 20.5128 44.0242L25.5496 42.8172L28.025 52.4656L19.794 44.2345ZM27.3678 41.4166V39.1579C28.2223 39.4109 29.1089 39.5392 30.0001 39.5387C30.9176 39.5387 31.8042 39.4042 32.642 39.155V41.4287L30.0066 51.7015L27.3678 41.4166ZM34.4604 42.8284L39.482 44.028C39.7321 44.0882 39.9791 44.1607 40.222 44.2452L31.9835 52.4838L34.4604 42.8284ZM45.3976 54.8907H32.5595L42.1894 45.2607C44.1609 46.672 45.3976 48.9705 45.3976 51.5231V54.8907ZM45.7316 38.7358L44.3126 44.2667C44.1666 44.1345 44.0166 44.0069 43.8629 43.8838L42.5399 38.7273V37.5978C42.9446 37.6748 43.3556 37.7137 43.7675 37.7141H44.4969C44.919 37.7141 45.3314 37.6726 45.7316 37.5965V38.7358ZM54.8893 48.1412H46.9104C46.6692 47.4804 46.3574 46.8477 45.9803 46.254L47.5498 40.1357L50.8705 40.929C53.2367 41.4942 54.8892 43.5882 54.8892 46.0208V48.1412H54.8893ZM30.0001 3C29.4178 3 28.9455 3.47229 28.9455 4.05458V8.57012C28.9455 9.15262 29.4177 9.6247 30.0001 9.6247C30.5825 9.6247 31.0546 9.15241 31.0546 8.57012V4.05458C31.0547 3.47229 30.5825 3 30.0001 3ZM30.7456 11.4918C30.5474 11.2948 30.2795 11.1838 30.0001 11.1828C29.7215 11.1828 29.4506 11.2956 29.2544 11.4918C29.0572 11.69 28.9461 11.9579 28.9454 12.2375C28.9454 12.5149 29.0581 12.787 29.2544 12.9831C29.4506 13.1793 29.7227 13.2922 30.0001 13.2922C30.2774 13.2922 30.5495 13.1793 30.7456 12.9831C30.9425 12.7848 31.0536 12.517 31.0547 12.2375C31.0547 11.959 30.9419 11.688 30.7456 11.4918ZM22.9869 11.7311L19.0792 7.82425C18.6673 7.41239 17.9996 7.4126 17.5877 7.82446C17.1759 8.23631 17.176 8.90403 17.5879 9.316L21.4957 13.2229C21.5935 13.3209 21.7097 13.3987 21.8377 13.4517C21.9657 13.5047 22.1028 13.5319 22.2414 13.5317C22.3799 13.5319 22.5171 13.5046 22.6451 13.4516C22.7731 13.3986 22.8894 13.3208 22.9872 13.2227C23.3989 12.8109 23.3988 12.1431 22.9869 11.7311ZM42.5701 7.66035C42.1583 7.24881 41.4908 7.2486 41.0786 7.66035L36.9328 11.806C36.521 12.2179 36.521 12.8856 36.9328 13.2975C37.1389 13.5035 37.4088 13.6065 37.6787 13.6065C37.9486 13.6065 38.2185 13.5034 38.4245 13.2975L42.5702 9.15189C42.982 8.74003 42.982 8.0722 42.5701 7.66035Z" fill="#4770FF"/>
</g>
<defs>
<clipPath id="clip0_4_73">
<rect width="54" height="54" fill="white" transform="translate(3 3)"/>
</clipPath>
</defs>
</svg>
