<svg xmlns="http://www.w3.org/2000/svg" version="1.1" xmlns:xlink="http://www.w3.org/1999/xlink" width="60" height="60" x="0" y="0" viewBox="0 0 512 512" style="enable-background:new 0 0 512 512" xml:space="preserve" class=""><g><path d="M123.165 446.571H56.563M89.742 209.816h40.823M89.742 249.778h40.823M89.742 289.739h40.823M49.162 209.816h4.285M49.162 249.778h4.285M49.162 289.739h4.285M84.339 7.5v58.759M12.161 7.5v40.433c0 6.886 3.416 11.522 9.218 15.229 2.826 1.806 6.395 3.092 10.831 3.098 3.841.005 7.052-.884 9.706-2.221 6.762-3.405 11.074-8.577 11.074-16.148V7.5M242.971 7.5l41.336 58.759M281.398 7.5l-41.394 58.759M175.414 7.5v40.433c0 6.886 3.416 11.522 9.218 15.229 2.826 1.806 6.395 3.092 10.831 3.098 3.841.005 7.052-.884 9.706-2.221 6.762-3.405 11.074-8.577 11.074-16.148V7.5M143.466 7.5l-24.848 58.759M12.161 114.341h487.678M447.554 7.7h52.285M499.839 36.879h-52.285M499.839 66.059h-52.285M479.839 504.5H234.188c-11.046 0-20-8.954-20-20V182.607c0-11.046 8.954-20 20-20h245.651c11.046 0 20 8.954 20 20V484.5c0 11.046-8.954 20-20 20zM53 388.643H32.161c-11.046 0-20 8.954-20 20V484.5c0 11.046 8.954 20 20 20h115.406c11.046 0 20-8.954 20-20v-75.857c0-11.046-8.954-20-20-20H88M12.161 250.211v66.737c0 11.046 8.954 20 20 20h115.406c11.046 0 20-8.954 20-20V182.607c0-11.046-8.954-20-20-20H32.161c-11.046 0-20 8.954-20 20v32.604" style="stroke-width:15;stroke-linecap:round;stroke-linejoin:round;stroke-miterlimit:10;" fill="none" stroke="#4770FF" stroke-width="15" stroke-linecap="round" stroke-linejoin="round" stroke-miterlimit="10" data-original="#4770FF" class=""></path><path d="M287.932 305.831c7.801 30.89 35.768 53.754 69.082 53.754 39.353 0 71.254-31.901 71.254-71.254 0-39.353-31.901-71.254-71.254-71.254-33.313 0-61.28 22.864-69.082 53.754M422.136 452.698H291.891c-13.079 0-23.681-10.602-23.681-23.681v0c0-13.079 10.602-23.681 23.681-23.681h130.245c13.079 0 23.681 10.602 23.681 23.681v0c0 13.079-10.602 23.681-23.681 23.681z" style="stroke-width:15;stroke-linecap:round;stroke-linejoin:round;stroke-miterlimit:10;" fill="none" stroke="#4770FF" stroke-width="15" stroke-linecap="round" stroke-linejoin="round" stroke-miterlimit="10" data-original="#4770FF" class=""></path></g></svg>